<?xml version="1.0" encoding="UTF-8"?> <svg xmlns="http://www.w3.org/2000/svg" xmlns:xlink="http://www.w3.org/1999/xlink" width="110px" height="19px" viewBox="0 0 110 19" version="1.1"><title>5f89c453ab7da01bba858ae2_element-formstack-dark-logo</title><g id="Blello" stroke="none" stroke-width="1" fill="none" fill-rule="evenodd"><g id="Formstack" transform="translate(-84.000000, -66.000000)" fill-rule="nonzero"><g id="5f89c453ab7da01bba858ae2_element-formstack-dark-logo" transform="translate(84.000000, 66.000000)"><path d="M27.4078794,7.66717245 L25.7525084,7.66717245 L25.7525084,6.25317059 L27.4078794,6.25317059 L27.4078794,5.00076899 C27.4078794,4.03116286 27.6937438,3.2669362 28.2654812,2.70806601 C28.8372187,2.14919582 29.6283318,1.86976493 30.6388445,1.86976493 C31.0643235,1.86976493 31.4665281,1.93709767 31.8454704,2.07176519 C32.2244126,2.2064327 32.5335451,2.39496439 32.772877,2.63736592 L32.0548847,3.8493675 C31.7224792,3.55309895 31.3103027,3.40496691 30.8183425,3.40496691 C30.3795673,3.40496691 30.0305468,3.55646559 29.7712705,3.85946748 C29.5119943,4.16246941 29.382358,4.57656579 29.382358,5.10176911 L29.382358,6.25317059 L32.2144386,6.25317059 L32.2144386,7.66717245 L29.382358,7.66717245 L29.382358,16.3531837 L27.4078794,16.3531837 L27.4078794,7.66717245 Z M36.916674,16.555184 C35.3876088,16.555184 34.1843191,16.0872213 33.3067687,15.1512822 C32.4292182,14.2153429 31.9904495,12.9326541 31.9904495,11.3031772 C31.9904495,9.6737002 32.4292182,8.39101142 33.3067687,7.45507218 C34.1843191,6.51913293 35.3876088,6.05117035 36.916674,6.05117035 C38.4457393,6.05117035 39.652353,6.51913293 40.5365517,7.45507218 C41.4207503,8.39101142 41.8628427,9.6737002 41.8628427,11.3031772 C41.8628427,12.9326541 41.4207503,14.2153429 40.5365517,15.1512822 C39.652353,16.0872213 38.4457393,16.555184 36.916674,16.555184 Z M36.916674,15.040182 C37.8341134,15.040182 38.5587463,14.7068849 39.0905949,14.0402807 C39.6224439,13.3736765 39.8883643,12.4613178 39.8883643,11.3031772 C39.8883643,10.1450365 39.6224439,9.23267781 39.0905949,8.5660736 C38.5587463,7.89946939 37.8341134,7.56617231 36.916674,7.56617231 C35.9859388,7.56617231 35.2613056,7.89946939 34.7427531,8.5660736 C34.2242006,9.23267781 33.9649282,10.1450365 33.9649282,11.3031772 C33.9649282,12.4613178 34.2242006,13.3736765 34.7427531,14.0402807 C35.2613056,14.7068849 35.9859388,15.040182 36.916674,15.040182 Z M43.4138903,8.71757379 C43.4138903,7.57289994 43.3939463,6.75144039 43.3540577,6.25317059 L45.208871,6.25317059 C45.2620558,6.79184066 45.2886479,7.38436881 45.2886479,8.03077292 L45.2886479,8.23277315 L45.3484805,8.23277315 C45.614405,7.54596884 46.0365535,7.01067352 46.6149388,6.6268711 C47.1933246,6.24306868 47.8747457,6.05117035 48.6592226,6.05117035 C48.8719619,6.05117035 49.0647542,6.07137018 49.2376052,6.11177041 L49.2376052,7.72777254 C49.1445314,7.70083903 48.9384433,7.68737248 48.619334,7.68737248 C48.0343005,7.68737248 47.4924876,7.85907098 46.9938794,8.20247314 C46.4952713,8.54587529 46.1030387,9.01047129 45.8171699,9.5962749 C45.5313011,10.1820786 45.3883688,10.8251064 45.3883688,11.5253774 L45.3883688,16.3531837 L43.4138903,16.3531837 L43.4138903,8.71757379 Z M50.2102698,8.83877397 C50.2102698,7.81530085 50.1770296,6.95344172 50.1105486,6.25317059 L51.8656407,6.25317059 C51.9188256,6.75144039 51.9454176,7.34396861 51.9454176,8.03077292 L52.0052506,8.03077292 C52.2578785,7.42476907 52.6667312,6.94333995 53.2318207,6.58647104 C53.7969098,6.22960213 54.4384426,6.05117035 55.1564385,6.05117035 C55.8611382,6.05117035 56.466107,6.22286886 56.9713636,6.56627101 C57.4766198,6.90967317 57.8156683,7.39110229 57.9885193,8.01057289 C58.2677396,7.40456904 58.6898885,6.92650656 59.2549777,6.57637106 C59.8200668,6.2262355 60.4549519,6.05117035 61.1596516,6.05117035 C62.2632378,6.05117035 63.1241549,6.41140054 63.7424293,7.1318717 C64.3607033,7.85234293 64.6698358,8.84550098 64.6698358,10.1113756 L64.6698358,16.3531837 L62.6953573,16.3531837 L62.6953573,10.2931758 C62.6953573,9.45823728 62.5191848,8.81184286 62.1668349,8.35397332 C61.8144855,7.89610379 61.3125607,7.66717245 60.6610459,7.66717245 C59.9962348,7.66717245 59.4544222,7.91293697 59.0355913,8.40447343 C58.6167604,8.89600982 58.4073481,9.53230426 58.4073481,10.3133759 L58.4073481,16.3531837 L56.4528136,16.3531837 L56.4528136,10.3739759 C56.4528136,8.56943123 55.8013084,7.66717245 54.498279,7.66717245 C54.0728001,7.66717245 53.6838914,7.78837139 53.3315415,8.03077292 C52.979192,8.27317444 52.6966516,8.60310489 52.4839119,9.02057416 C52.2711723,9.4380435 52.1648043,9.88917289 52.1648043,10.3739759 L52.1648043,16.3531837 L50.2102698,16.3531837 L50.2102698,8.83877397 Z M69.5316254,16.555184 C68.7471482,16.555184 68.0424592,16.3935854 67.4175368,16.0703833 C66.7926147,15.7471813 66.3538461,15.3162517 66.1012178,14.7775816 L67.3577042,13.9089805 C67.5837401,14.2591161 67.8895483,14.5351803 68.2751387,14.7371816 C68.6607291,14.9391829 69.079554,15.040182 69.5316254,15.040182 C70.0501776,15.040182 70.4789748,14.8920499 70.8180281,14.5957814 C71.1570813,14.2995129 71.3266055,13.9224495 71.3266055,13.46458 C71.3266055,13.1009777 71.1936454,12.801347 70.9277216,12.5656788 C70.6617971,12.3300106 70.1698438,12.0775128 69.4518479,11.8081778 C68.2950771,11.363775 67.480696,10.909279 67.0086803,10.444676 C66.5366646,9.98007313 66.3006602,9.40437809 66.3006602,8.71757379 C66.3006602,7.90956868 66.6164405,7.26317434 67.248011,6.77837129 C67.8795816,6.29356824 68.7205547,6.05117035 69.7709558,6.05117035 C70.4490629,6.05117035 71.0673284,6.19256912 71.6257693,6.47537084 C72.1842103,6.7581727 72.6229788,7.1554359 72.9420887,7.66717245 L71.7653789,8.55597355 C71.5393432,8.23277156 71.2568028,7.98700705 70.9177489,7.81867264 C70.5786957,7.65033824 70.2030832,7.56617231 69.7908998,7.56617231 C69.338829,7.56617231 68.9698646,7.66717142 68.6839956,7.86917268 C68.3981267,8.07117394 68.2551944,8.33377171 68.2551944,8.6569737 C68.2551944,8.99364251 68.4014509,9.2730734 68.6939675,9.49527482 C68.9864846,9.71747625 69.5582133,9.99690714 70.4091714,10.3335759 C71.4728693,10.7510452 72.2207702,11.1853414 72.6528969,11.6364776 C73.0850244,12.0876137 73.3010846,12.670042 73.3010846,13.3837798 C73.3010846,14.3399192 72.9553882,15.1075125 72.2639843,15.6865828 C71.5725812,16.2656532 70.661804,16.555184 69.5316254,16.555184 L69.5316254,16.555184 Z M78.5218698,16.555184 C77.5911349,16.555184 76.8631773,16.2690198 76.3379771,15.6966829 C75.8127762,15.1243459 75.5501798,14.3331861 75.5501798,13.3231798 L75.5501798,7.78837256 L73.755199,7.78837256 L73.755199,6.25317059 L75.5501798,6.25317059 L75.5501798,3.67892977 L77.5246582,3.67892977 L77.5246582,6.25317059 L80.3766834,6.25317059 L80.3766834,7.78837256 L77.5246582,7.78837256 L77.5246582,13.0807795 C77.5246582,13.7406503 77.6542944,14.2254461 77.9135708,14.5351814 C78.1728473,14.8449167 78.5684038,14.999782 79.1002527,14.999782 C79.6321016,14.999782 80.1041102,14.9189827 80.5162929,14.7573816 L80.6359584,16.1915835 C80.1439983,16.433985 79.4393094,16.555184 78.5218698,16.555184 L78.5218698,16.555184 Z M85.058975,16.555184 C84.4074599,16.555184 83.8257592,16.4205185 83.3138543,16.1511834 C82.8019501,15.8818484 82.4030696,15.5081517 82.1172011,15.030082 C81.8313319,14.5520123 81.6883998,14.0099837 81.6883998,13.4039798 C81.6883998,12.3805068 82.0739842,11.5960802 82.8451649,11.0506768 C83.6163462,10.5052734 84.7132676,10.2325758 86.1359627,10.2325758 L88.010721,10.2325758 L88.010721,9.72757506 C88.010721,9.05423758 87.8312241,8.53577538 87.4722261,8.17217306 C87.1132282,7.8085708 86.5880355,7.62677239 85.8966323,7.62677239 C85.2983026,7.62677239 84.7398693,7.7446047 84.2213171,7.98027288 C83.7027642,8.21594099 83.2772916,8.55597135 82.9448864,9.00037413 L82.0075076,7.80857259 C82.4861718,7.24296908 83.0678725,6.80867281 83.7526277,6.50567092 C84.4373828,6.20266904 85.1786364,6.05117035 85.9764091,6.05117035 C87.252846,6.05117035 88.2433999,6.36426762 88.9480991,6.99047157 C89.652799,7.61667551 90.0051434,8.5021011 90.0051434,9.64677501 L90.0051434,14.3331811 C90.0051434,14.9391849 90.0849195,15.6125123 90.2444745,16.3531837 L88.5093264,16.3531837 C88.3763642,16.0299816 88.2832921,15.5788522 88.2301073,14.999782 L88.1902186,14.999782 C87.4323339,16.0367218 86.3885966,16.555184 85.058975,16.555184 L85.058975,16.555184 Z M85.4379149,14.999782 C86.1559108,14.999782 86.7642036,14.8011504 87.2628118,14.4038812 C87.76142,14.006612 88.010721,13.5251829 88.010721,12.9595793 L88.010721,11.6263776 L86.0561859,11.6263776 C85.2717092,11.6263776 84.6700645,11.7778762 84.2512338,12.0808781 C83.8324024,12.3838801 83.6229901,12.8249096 83.6229901,13.4039798 C83.6229901,13.9022496 83.7858663,14.2927796 84.1116235,14.5755814 C84.4373808,14.8583832 84.879474,14.999782 85.4379149,14.999782 Z M96.3228616,16.555184 C94.8203891,16.555184 93.6503389,16.090588 92.8126768,15.1613821 C91.9750154,14.2321763 91.5561909,12.9461208 91.5561909,11.3031772 C91.5561909,9.64676669 91.9750154,8.35734464 92.8126768,7.43487215 C93.6503389,6.51239966 94.8203891,6.05117035 96.3228616,6.05117035 C97.1871158,6.05117035 97.9483127,6.21950222 98.6064759,6.55617103 C99.264639,6.89283977 99.779859,7.37763553 100.152154,8.01057289 L98.9754438,9.08117425 C98.6962233,8.62330471 98.3305828,8.26644117 97.8785114,8.01057289 C97.42644,7.75470461 96.9344873,7.62677239 96.4026384,7.62677239 C95.4984955,7.62677239 94.7938067,7.94996957 94.2885505,8.59637361 C93.7832943,9.24277772 93.5306693,10.1450365 93.5306693,11.3031772 C93.5306693,12.447851 93.7832943,13.3467432 94.2885505,13.9998807 C94.7938067,14.6530181 95.4984955,14.9795819 96.4026384,14.9795819 C96.9344873,14.9795819 97.42644,14.8516497 97.8785114,14.5957814 C98.3305828,14.3399132 98.6962233,13.9830496 98.9754438,13.52518 L100.152154,14.5957814 C99.779859,15.2287187 99.264639,15.7135145 98.6064759,16.0501833 C97.9483127,16.3868521 97.1871158,16.555184 96.3228616,16.555184 L96.3228616,16.555184 Z M107.766247,16.3531837 L104.595114,11.4041773 L103.218962,12.7777791 L103.218962,16.3531837 L101.224539,16.3531837 L101.224539,1.83946488 L103.218962,1.83946488 L103.218962,10.3739759 L107.287585,6.25317059 L109.700837,6.25317059 L105.931377,10.0507755 L110,16.3531837 L107.766247,16.3531837 Z" id="Type" fill="#15232B"></path><path d="M15.461852,0 C16.0656826,0 16.555184,0.489501385 16.555184,1.09333194 L16.555184,17.3013169 C16.555184,17.9051475 16.0656826,18.3946488 15.461852,18.3946488 L1.09333194,18.3946488 C0.489501383,18.3946488 0,17.9051475 0,17.3013169 L0,1.09333194 C0,0.489501385 0.489501383,0 1.09333194,0 L15.461852,0 Z M18.7625418,1.83946488 C19.0673143,1.83946488 19.3143813,2.08653183 19.3143813,2.39130435 L19.3143813,16.0033445 C19.3143813,16.308117 19.0673143,16.555184 18.7625418,16.555184 L17.4749164,16.555184 L17.4749164,1.83946488 L18.7625418,1.83946488 Z M6.58904467,13.3074209 C6.53096229,13.2240714 6.41630911,13.2035884 6.33295963,13.2616708 L3.75770879,15.0562437 C3.70834954,15.0906399 3.67892977,15.1469995 3.67892977,15.2071612 L3.67892977,15.2885309 C3.67892977,15.3865006 3.75834989,15.4659207 3.85631957,15.4659207 L6.4381271,15.4659207 C6.53971793,15.4659207 6.62207358,15.3835651 6.62207358,15.2819742 L6.62207358,13.4125883 C6.62207358,13.3749804 6.61054622,13.3382761 6.58904467,13.3074209 Z M21.5217391,3.67892977 C21.8265117,3.67892977 22.0735786,3.9259967 22.0735786,4.23076923 L22.0735786,14.1638796 C22.0735786,14.4686522 21.8265117,14.7157191 21.5217391,14.7157191 L20.2341137,14.7157191 L20.2341137,3.67892977 L21.5217391,3.67892977 Z M10.8325584,9.01337791 L6.33674677,9.01337791 C6.29556196,9.01337791 6.25556857,9.0271992 6.2231717,9.05262818 L3.74930119,10.9944197 C3.70487461,11.0292911 3.67892977,11.0826383 3.67892977,11.139116 L3.67892977,13.9881575 C3.67892977,14.0253638 3.69021238,14.0616953 3.71128828,14.0923564 C3.76883571,14.1760761 3.88335536,14.197293 3.96707508,14.1397455 L10.9367572,9.3489124 C10.986679,9.31459711 11.0165049,9.25790263 11.0165049,9.1973244 C11.0165049,9.09573358 10.9341492,9.01337791 10.8325584,9.01337791 Z M12.351863,2.94314381 L3.86287626,2.94314381 C3.76128542,2.94314381 3.67892977,3.02549946 3.67892977,3.1270903 L3.67892977,9.91827973 C3.67892977,9.96004872 3.69314529,10.0005741 3.71923818,10.0331902 C3.78270147,10.1125193 3.8984576,10.1253811 3.97778672,10.0619178 L12.4667735,3.27072838 C12.5104084,3.23582045 12.5358095,3.18297025 12.5358095,3.1270903 C12.5358095,3.02549946 12.4534539,2.94314381 12.351863,2.94314381 Z" id="Combined-Shape" fill="#21B573"></path></g></g></g></svg> 