<?xml version="1.0" encoding="UTF-8"?> <svg xmlns="http://www.w3.org/2000/svg" width="97" height="37" viewBox="0 0 97 37"><g fill="none"><path fill="#FFF" d="M33.0105994,6.80679988 C29.4223995,5.24159991 16.3610997,0.198099997 15.3173997,6.60239989 C14.9995997,8.55189985 17.9892997,14.4493998 17.5482997,14.9974997 C16.8216997,15.9039997 11.9825998,12.8533998 11.2181998,12.4382998 C8.02619986,10.6987998 4.14329993,10.0582998 0.529199991,10.3907998 C0.800799986,16.8335997 1.32299998,23.3148996 1.87879997,29.7415995 C9.24909984,30.2567995 14.5025998,32.6220994 21.0762996,35.3723994 C22.6708996,36.0387994 24.7274996,36.6414994 26.2450996,35.4521994 C28.3366995,33.8141994 26.8057995,30.7635995 25.6430996,29.1262995 C17.2430997,17.3074997 37.4030994,25.8166996 40.6657993,27.5372995 L42.3734028,27.3993995 C42.4248993,27.3951995 35.8329994,11.9524998 33.0105994,6.80679988"></path><path fill="#454249" d="M33.1407994,6.51559989 L33.2415994,6.55969989 L33.2940994,6.65559989 C34.5421994,8.93059985 36.6092994,13.3573998 39.0648993,18.9041997 C39.9299261,20.8577708 40.7834742,22.8164046 41.6254993,24.7799996 C41.8858796,25.3867494 42.1437152,25.994588 42.3989993,26.6034995 C42.4879198,26.8165539 42.5751891,27.0302936 42.6607993,27.2446995 L42.6775993,27.2929995 C42.6824993,27.3069995 42.6824993,27.3069995 42.6880993,27.3321995 C42.6922993,27.3517995 42.6922993,27.3517995 42.6950993,27.4000995 C42.7139993,27.5043995 42.7139993,27.5043995 42.3954993,27.7164995 L41.5463993,27.7850995 L41.5428993,27.7850995 L40.9583993,27.8326995 L40.6923993,27.8536995 L40.5978993,27.8620995 L40.5138993,27.8179995 C37.8510994,26.4130996 32.2881995,24.2689996 28.7181995,23.5661996 C26.3990996,23.1104996 24.8268996,23.2021996 24.2276996,23.8622996 C23.5500996,24.6091996 24.0071996,26.2709996 25.9062996,28.9442995 C27.7738995,31.5720995 28.3702995,34.1935994 26.4452995,35.7013994 C25.0389996,36.8031994 23.2763996,36.6365994 20.9502996,35.6649994 C15.4853997,33.3780994 15.6232997,33.4347994 13.7787998,32.7543994 C9.56479984,31.1996995 5.9639999,30.3456995 1.85569997,30.0586995 L1.58059997,30.0390995 L1.55749997,29.7681995 C0.837199986,21.4346996 0.442399992,15.9788997 0.207899996,10.4040998 L0.195299997,10.1030998 L0.499799991,10.0750998 C4.31269993,9.72369983 8.22779986,10.4460998 11.3735998,12.1596998 C12.1503366,12.6159136 12.9325264,13.0627792 13.7199998,13.5001998 C13.9992998,13.6506998 14.2673998,13.7913998 14.5249998,13.9208998 C16.0474997,14.6873997 17.1324997,15.0044997 17.2962997,14.8000997 C17.2717997,14.8301997 17.2703997,14.8364997 17.2703997,14.8217997 C17.2696952,14.7486604 17.2619596,14.6757583 17.2472997,14.6040998 C17.1895943,14.3281193 17.1147833,14.0559942 17.0232997,13.7892998 C16.8969894,13.4090629 16.7642034,13.031008 16.6249997,12.6552998 L16.1398997,11.3343998 C16.0446997,11.0725998 15.9606997,10.8373998 15.8815997,10.6140998 C15.1801997,8.62049985 14.8693997,7.34859987 14.9995997,6.55199989 C15.5035997,3.45519994 18.5415997,2.59699996 23.2644996,3.40269994 C26.4354995,3.94379993 30.0894995,5.18489991 33.1407994,6.51559989 L33.1407994,6.51559989 Z M23.1552996,4.02919993 C18.7410997,3.27599994 16.0621997,4.03269993 15.6351997,6.65279989 C15.5301997,7.30169988 15.8283997,8.52599985 16.4905997,10.4054998 C16.5675997,10.6273998 16.6515997,10.8590998 16.7467997,11.1194998 C16.8398997,11.3770998 17.1681997,12.2674998 17.2311997,12.4396998 C17.4096997,12.9282998 17.5349997,13.2845998 17.6357997,13.5946998 C17.9311997,14.5011998 18.0109997,14.9337997 17.8009997,15.1948997 C17.3207997,15.7933997 16.1447997,15.4496997 14.2316998,14.4871998 C13.9559388,14.3474552 13.6819829,14.2041767 13.4098998,14.0573998 C12.621789,13.6200497 11.8391289,13.1729487 11.0620998,12.7161998 C8.11789986,11.1117998 4.45619992,10.4068998 0.864499985,10.6812998 C1.09759998,16.0803997 1.48469997,21.4220996 2.17629996,29.4447995 C6.23769989,29.7548995 9.82939983,30.6186995 14.0048998,32.1593995 C15.8612997,32.8439994 15.7233997,32.7872994 21.2022996,35.0797994 C23.3288996,35.9687994 24.8814996,36.1150994 26.0448996,35.2036994 C27.5932995,33.9905994 27.0696995,31.6882995 25.3791996,29.3089995 C23.3211996,26.4130996 22.7926996,24.4908996 23.7481996,23.4380996 C24.5566996,22.5462996 26.3094996,22.4440996 28.8441995,22.9431996 C32.4456994,23.6515996 37.9882994,25.7816996 40.7336993,27.2131995 L40.9051993,27.1991995 L41.4903993,27.1515995 L41.4938993,27.1515995 L41.9166993,27.1172995 C41.6253557,26.4191513 41.3306523,25.7224099 41.0325993,25.0270996 C40.1914935,23.0658435 39.3388789,21.1095431 38.4747993,19.1582997 C36.0604994,13.7059998 34.0213994,9.33589984 32.7795994,7.05319988 C29.7926995,5.7581999 26.2282996,4.55419992 23.1545996,4.02919993 L23.1552996,4.02919993 Z"></path><path fill="#454249" d="M25.5387996 17.6847997C26.4207996 17.7106997 30.6753995 18.4267997 32.9328994 19.4382997L35.1896994 25.2104996C32.9069994 24.2633996 29.4566995 23.1118996 27.3811995 23.1629996L25.5387996 17.6847997 25.5387996 17.6847997zM25.5387996 17.6847997L23.9602996 12.7826998C22.4776996 12.5915998 19.0266997 12.8470998 19.5978997 16.2266997L21.6215996 21.4731996C20.9726996 19.3745997 21.6992996 17.5566997 25.5387996 17.6847997M38.8478993 21.8063996L36.9018994 16.6361997C35.7608994 16.0215997 31.2899995 14.5165998 30.9273995 14.3373998L32.9328994 19.4382997C33.5558994 19.6552997 38.3032993 21.4990996 38.8478993 21.8063996M34.9558994 11.4659998C34.4371994 11.1068998 29.6638995 9.46819984 28.9057995 9.23649984L27.1473995 4.75999992C27.4588995 4.75999992 32.1803995 6.39799989 33.0105994 6.80749988L34.9565994 11.4659998 34.9558994 11.4659998zM30.9273995 14.3373998L28.9050995 9.23649984C26.4200996 8.34259986 23.1216996 7.84279987 22.3432996 7.84279987L23.9602996 12.7826998C24.9682996 12.8470998 29.2585995 13.5757998 30.9273995 14.3373998"></path><path fill="#454249" d="M22.3439996,7.84279987 L20.8949996,3.42859994 C18.4820997,3.17239995 16.2259997,4.22099993 15.5504997,5.6034999 L17.5055997,10.5972998 C17.6000997,8.95719985 19.2513997,7.59989987 22.3432996,7.84279987 M25.7984996,35.6789994 L23.6228996,30.1048995 C21.6992996,30.7642995 19.4683997,29.5350995 16.9000997,28.3058995 L18.1712997,33.9898994 C20.1942997,35.0650994 24.1380996,37.0103994 25.7984996,35.6789994 M21.5949996,24.9157996 L19.5628997,19.7357997 C18.5856997,20.3216997 15.1094997,18.6066997 14.5907998,18.1460997 L15.7317997,23.1881996 C17.3921997,23.9812996 20.0129997,25.5177996 21.5956996,24.9157996"></path><path fill="#454249" d="M21.5949996,24.9157996 L23.6228996,30.1048995 C24.2934996,29.7912995 24.5265996,28.9988995 24.5265996,27.9614995 L21.6215996,21.4731996 C22.1402996,23.0600996 22.6330996,24.3403996 21.5956996,24.9157996 M14.5907998,18.1460997 C12.7749998,16.9420997 9.74469983,15.8920997 7.92819986,15.5350997 L7.24919988,10.9787998 C9.40169984,11.3119998 12.7749998,13.2565998 13.7087998,13.7689998 L14.5907998,18.1460997 Z"></path><path fill="#454249" d="M7.92819986,15.5343997 C6.75569988,15.2795997 2.16369996,14.5109998 0.866599985,14.7153997 L1.20399998,19.5537997 C3.27949994,19.6811997 7.19809988,20.0115997 8.70309985,20.6261996 L7.92819986,15.5343997 L7.92819986,15.5343997 Z M16.9000997,28.3065995 L15.7324997,23.1888996 C13.9684998,22.3684996 10.3907998,20.8277996 8.70309985,20.6254996 L9.44999984,25.5989996 C10.9066998,25.7991996 16.1993997,27.6940995 16.9000997,28.3079995 M10.2843998,31.1226995 L9.44929984,25.5982996 C6.34129989,24.6210996 2.11189996,24.4432996 1.54139997,24.3914996 L1.93059997,29.7415995 C4.00609993,29.7912995 9.40239984,30.6620995 10.2843998,31.1226995 M19.5628997,19.7357997 C19.7217997,19.5677997 19.9639997,19.5572997 19.9198997,19.0896997 C19.8883997,18.7648997 19.7189997,18.2202997 19.2863997,17.2500997 C18.7158997,15.9697997 18.8194997,16.3029997 18.7158997,15.9445997 L16.5108997,11.4141998 C17.0813997,12.8470998 17.6259997,14.1273998 17.6784997,14.8952997 L19.5628997,19.7357997 Z"></path><path fill="#454249" d="M17.5055997 10.5972998L19.5089997 15.6743997C20.1165997 17.2493997 22.3999996 23.0523996 22.2179996 23.8202996L19.9352997 18.7242997C19.3255997 17.5062997 20.1529997 18.9412997 19.5460997 17.7365997 17.5741997 13.8200998 17.5055997 10.5965998 17.5055997 10.5965998M31.8331995 31.4313995L31.0673995 35.9323994 29.3537995 35.9323994 30.1181995 31.4313995 28.8560995 31.4313995 29.0856995 30.0922995 33.3591994 30.0922995 33.1337994 31.4313995 31.8331995 31.4313995zM35.7125994 30.1090995L34.7269994 35.9309994 33.0483994 35.9309994 34.0339994 30.1083995 35.7125994 30.1090995zM37.9154994 32.5065994L38.5783993 32.5065994C39.2160993 32.5065994 39.5352993 32.2930995 39.5352993 31.8667995 39.5352993 31.5076995 39.2678993 31.3291995 38.7323993 31.3291995L38.1149994 31.3291995 37.9154994 32.5065994 37.9154994 32.5065994zM40.0336993 33.4914994L40.6727993 35.9323994 38.9262993 35.9323994 38.4068993 33.7175994 37.7089994 33.7175994 37.3316994 35.9323994 35.6481994 35.9323994 36.6351994 30.1090995 39.2111993 30.1090995C39.9118993 30.1090995 40.4305993 30.2609995 40.7679993 30.5633995 41.1046993 30.8664995 41.2740993 31.2773995 41.2740993 31.7988995 41.2740993 32.6311994 40.8596993 33.1953994 40.0336993 33.4914994L40.0336993 33.4914994zM45.8891992 34.5925994L45.6595992 35.9316994 41.3104993 35.9316994 42.2960993 30.1090995 46.5373992 30.1090995 46.3217992 31.3844995 43.7898993 31.3844995 43.6365993 32.2979994 45.7631992 32.2979994 45.5475992 33.5600994 43.4251993 33.5600994 43.2515993 34.5925994 45.8891992 34.5925994zM51.9749991 31.4614995L50.4573991 31.8408995C50.4139991 31.6672995 50.3061991 31.5314995 50.1325991 31.4313995 49.9591419 31.3316107 49.7622049 31.2798997 49.5620992 31.2815995 49.1728992 31.2815995 48.9782992 31.4103995 48.9782992 31.6658995 48.9782992 31.7491995 49.0062992 31.8198995 49.0608992 31.8793995 49.1147992 31.9395995 49.2687992 32.0130995 49.5228992 32.1012995L50.4601991 32.4316994C50.7051991 32.5177994 50.9333991 32.6430994 51.1433991 32.8096994 51.3540991 32.9755994 51.5052991 33.1575994 51.5983991 33.3549994 51.6907991 33.5530994 51.7362991 33.7637994 51.7362991 33.9884994 51.7362991 34.5764994 51.5024991 35.0622994 51.0341991 35.4458994 50.5651991 35.8294994 49.9407991 36.0212994 49.1602992 36.0212994 48.4910992 36.0212994 47.9086992 35.8875994 47.4102992 35.6201994 46.9132992 35.3534994 46.5667992 34.9446994 46.3707992 34.3958994L48.0745992 34.0675994C48.2369992 34.5218994 49.5095992 34.6863994 49.1644992 34.6863994 48.9222992 34.6863994 49.5816992 34.6429994 49.6894992 34.5561994 49.7979992 34.4693994 49.8511992 34.3699994 49.8511992 34.2600994 49.8523022 34.1920969 49.8303428 34.1257252 49.7888992 34.0717994 49.7531953 34.023282 49.7073267 33.9831469 49.6544992 33.9541994 49.4329194 33.8632321 49.2088312 33.7784987 48.9824992 33.7000994 48.4413992 33.5033994 48.0612992 33.3465994 47.8435992 33.2310994 47.3618429 32.9709195 47.0667779 32.4624664 47.0798992 31.9150995 47.0798992 31.3851995 47.2779992 30.9350995 47.6748992 30.5675995 48.0710992 30.1993995 48.6758992 30.0152995 49.4927992 30.0152995 50.1157991 30.0152995 50.6484991 30.1447995 51.0922991 30.4030995 51.5360991 30.6620995 51.8307991 31.0148995 51.9742991 31.4614995M56.487899 32.0004995C56.865899 31.8758995 57.054199 31.6735995 57.054199 31.3942995 57.056069 31.2854339 57.0148 31.1802483 56.939399 31.1016995 56.8628104 31.0199035 56.7545843 30.9752347 56.642599 30.9791995 56.5345974 30.9764833 56.4292318 31.0127649 56.345799 31.0813995 56.263199 31.1499995 56.221899 31.2528995 56.221899 31.3893995 56.221899 31.5909995 56.310799 31.7953995 56.487899 32.0004995L56.487899 32.0004995zM55.808899 33.4424994C55.4588991 33.5719994 55.2845991 33.8029994 55.2845991 34.1354994 55.2845991 34.3405994 55.3503991 34.5064994 55.4812991 34.6324994 55.6121991 34.7598994 55.791399 34.8228994 56.018899 34.8228994 56.246399 34.8228994 56.454299 34.7514994 56.641899 34.6093994L55.808899 33.4424994 55.808899 33.4424994zM59.383799 34.8095994L59.180799 35.9953994C58.9962195 36.0462755 58.8059376 36.0735594 58.614499 36.0765994 58.147599 36.0765994 57.732499 35.9036994 57.366399 35.5571994 56.933099 35.9120994 56.396899 36.0891994 55.7563991 36.0891994 55.0990991 36.0891994 54.5586991 35.9260994 54.1344991 35.5991994 53.7109991 35.2715994 53.4988991 34.8396994 53.4988991 34.3055994 53.4988991 33.9744994 53.5968991 33.6524994 53.7907991 33.3381994 53.9853991 33.0231994 54.4347991 32.7375994 55.1368991 32.4792994 54.8778991 32.0872995 54.7483991 31.7414995 54.7483991 31.4432995 54.7483991 30.9966995 54.9114991 30.6354995 55.2376991 30.3582995 55.5631991 30.0810995 55.997899 29.9431995 56.543199 29.9431995 57.078699 29.9431995 57.514799 30.0761995 57.849399 30.3435995 58.183299 30.6109995 58.349899 30.9434995 58.349899 31.3417995 58.349899 31.9899995 57.936199 32.5009994 57.107399 32.8740994L57.682799 33.6678994C57.835399 33.5138994 57.994999 33.2751994 58.158799 32.9503994 58.246299 32.7795994 58.309999 32.6612994 58.349899 32.5961994L59.712099 32.8733994C59.639999 33.0777994 59.477599 33.3738994 59.226299 33.7602994 58.974299 34.1466994 58.720899 34.4308994 58.468199 34.6128994 58.585099 34.7549994 58.761499 34.8270994 58.994599 34.8270994 59.061099 34.8270994 59.190599 34.8214994 59.383799 34.8095994L59.383799 34.8095994zM67.0151989 31.4614995L65.4982989 31.8408995C65.4548989 31.6672995 65.3463989 31.5314995 65.1741989 31.4313995 65.0005234 31.3315218 64.8033374 31.2798088 64.6029989 31.2815995 64.2137989 31.2815995 64.0191989 31.4103995 64.0191989 31.6658995 64.0191989 31.7491995 64.0471989 31.8198995 64.1017989 31.8793995 64.1563989 31.9395995 64.3103989 32.0130995 64.5637989 32.1012995L65.5017989 32.4316994C65.7467989 32.5177994 65.9735989 32.6430994 66.1849989 32.8096994 66.3949989 32.9755994 66.5468989 33.1575994 66.6392989 33.3549994 66.7309989 33.5530994 66.7778989 33.7637994 66.7778989 33.9884994 66.7778989 34.5764994 66.5440989 35.0622994 66.0750989 35.4458994 65.6067989 35.8294994 64.9816989 36.0212994 64.2004989 36.0212994 63.5319989 36.0212994 62.9488989 35.8875994 62.4518989 35.6201994 61.9548989 35.3534994 61.608399 34.9446994 61.412399 34.3958994L63.1154989 34.0675994C63.2624989 34.4805994 63.6264989 34.6863994 64.2053989 34.6863994 64.4475989 34.6863994 64.6225989 34.6429994 64.7303989 34.5561994 64.8381989 34.4693994 64.8927989 34.3699994 64.8927989 34.2600994 64.8938695 34.1919876 64.8716424 34.1255533 64.8297989 34.0717994 64.7944832 34.0231891 64.7488184 33.9830232 64.6960989 33.9541994 64.4744906 33.8633044 64.2504045 33.7785718 64.0240989 33.7000994 63.4822989 33.5033994 63.1028989 33.3465994 62.8851989 33.2310994 62.4030806 32.9719948 62.1077701 32.4636601 62.1214989 31.9164995 62.1214989 31.3851995 62.3195989 30.9357995 62.7164989 30.5675995 63.1119989 30.1993995 63.7174989 30.0152995 64.5336989 30.0152995 65.1566989 30.0152995 65.6893989 30.1447995 66.1338989 30.4030995 66.5769989 30.6620995 66.8716989 31.0148995 67.0158989 31.4614995M71.6848988 34.5925994L71.4559988 35.9316994 67.1061989 35.9316994 68.0924988 30.1090995 72.3337988 30.1090995 72.1167988 31.3844995 69.5855988 31.3844995 69.4322988 32.2979994 71.5595988 32.2979994 71.3439988 33.5600994 69.2201988 33.5600994 69.0472988 34.5925994 71.6848988 34.5925994zM74.4442987 32.5065994L75.1085987 32.5065994C75.7455987 32.5065994 76.0647987 32.2930995 76.0647987 31.8667995 76.0647987 31.5076995 75.7966987 31.3291995 75.2618987 31.3291995L74.6444987 31.3291995 74.4442987 32.5065994 74.4442987 32.5065994zM76.5631987 33.4914994L77.2015987 35.9323994 75.4557987 35.9323994 74.9363987 33.7175994 74.2384987 33.7175994 73.8604987 35.9323994 72.1776988 35.9323994 73.1632988 30.1090995 75.7406987 30.1090995C76.4406987 30.1090995 76.9593987 30.2609995 77.2967987 30.5633995 77.6341987 30.8664995 77.8028987 31.2773995 77.8028987 31.7988995 77.8028987 32.6311994 77.3898987 33.1953994 76.5631987 33.4914994zM83.6149986 30.1090995L80.9633986 35.9316994 79.2539987 35.9316994 78.1031987 30.1090995 79.9049986 30.1090995 80.5559986 33.8673994C80.5972986 33.7553994 80.7841986 33.3122994 81.1194986 32.5366994L82.1743986 30.1090995 83.6156986 30.1090995 83.6149986 30.1090995zM85.8003985 30.1090995L84.8147986 35.9316994 83.1354986 35.9316994 84.1224986 30.1090995 85.8003985 30.1090995zM89.4417985 33.6797994L91.0237984 33.8799994C90.8396985 34.5169994 90.5232985 35.0384994 90.0752985 35.4451994 89.6272985 35.8518994 89.0616985 36.0555994 88.3784985 36.0555994 87.6371985 36.0555994 87.0484985 35.8070994 86.6116985 35.3114994 86.1748985 34.8144994 85.9571985 34.1774994 85.9571985 33.3976994 85.9571985 32.4995994 86.2266985 31.7036995 86.7649985 31.0113995 87.3039985 30.3190995 88.0459985 29.9725995 88.9874985 29.9725995 89.6734985 29.9725995 90.2292985 30.1797995 90.6548985 30.5955995 91.0797984 31.0106995 91.2960984 31.5594995 91.3051984 32.2419995L89.6405985 32.3609994C89.6349985 32.0025995 89.5782985 31.7358995 89.4725985 31.5594995 89.3654985 31.3830995 89.1855985 31.2955995 88.9321985 31.2955995 88.4932985 31.2955995 88.1950985 31.6147995 88.0347985 32.2545995 87.8744985 32.8943994 87.7946985 33.3976994 87.7946985 33.7644994 87.7946985 34.3615994 88.0312985 34.6604994 88.5030985 34.6604994 88.7368985 34.6604994 88.9251985 34.5834994 89.0700985 34.4294994 89.2142985 34.2768994 89.3381985 34.0269994 89.4410985 33.6797994M95.8166984 34.5925994L95.5877984 35.9316994 91.2379984 35.9316994 92.2235984 30.1090995 96.4655984 30.1090995 96.2485984 31.3844995 93.7173984 31.3844995 93.5640984 32.2979994 95.6920984 32.2979994 95.4750984 33.5600994 93.3519984 33.5600994 93.1783984 34.5925994 95.8166984 34.5925994zM45.3193992.825999986L43.5553993 7.58379987 41.6128993 7.58379987 45.2178992 16.7978997 48.7836992 7.58379987 46.8761992 7.58379987 48.6401992.826699986 60.262999.826699986 58.498999 7.58379987 56.464099 7.58379987 48.7465992 27.5491995 40.8575993 27.5491995C39.5499993 23.7719996 35.0489994 11.3728998 33.4039994 7.58379987L31.9318995 7.58379987 33.6958994.826699986 45.3186992.826699986 45.3193992.825999986z"></path><path fill="#000" d="M33.9471994,1.14449998 L32.3483994,7.26599988 L33.6174994,7.26599988 L33.7014994,7.45919987 C35.0671994,10.6063998 39.1544993,21.6656996 41.0871993,27.2313995 L48.5246992,27.2313995 L56.242199,7.26599988 L58.249099,7.26599988 L59.847199,1.14449998 L48.8900992,1.14449998 L47.2919992,7.26599988 L49.2512992,7.26599988 L45.2199992,17.6847997 L41.1431993,7.26599988 L43.3061993,7.26599988 L44.9035992,1.14449998 L33.9471994,1.14449998 Z M33.1911994,7.90159987 L31.5174995,7.90159987 L33.4473994,0.508899991 L45.7351992,0.508899991 L43.8045993,7.90159987 L42.0825993,7.90159987 L45.2164992,15.9109997 L48.3153992,7.90159987 L46.4603992,7.90159987 L48.3909992,0.508899991 L60.679499,0.508899991 L58.748899,7.90159987 L56.685999,7.90159987 L48.9684992,27.8669995 L40.6265993,27.8669995 L40.5523993,27.6520995 C38.6931993,22.2816996 34.6450994,11.3126998 33.1918994,7.90159987 L33.1911994,7.90159987 Z"></path><polygon fill="#454249" points="72.807 20.792 71.042 27.549 59.419 27.549 61.183 20.792 63.203 20.792 63.203 7.584 60.612 7.584 62.376 .827 73.998 .827 72.234 7.584 70.259 7.584 70.259 20.792"></polygon><path fill="#000" d="M69.9369988,21.1098996 L69.9369988,7.26599988 L71.9844988,7.26599988 L73.5825987,1.14449998 L62.6254989,1.14449998 L61.027399,7.26599988 L63.5249989,7.26599988 L63.5249989,21.1098996 L61.431999,21.1098996 L59.833899,27.2313995 L70.7916988,27.2313995 L72.3904988,21.1098996 L69.9369988,21.1098996 Z M73.2220988,20.4742997 L71.2914988,27.8669995 L59.003699,27.8669995 L60.933599,20.4742997 L62.8809989,20.4742997 L62.8809989,7.90229987 L60.196499,7.90229987 L62.1249989,0.508199991 L74.4134987,0.508199991 L72.4828988,7.90089987 L70.5802988,7.90089987 L70.5802988,20.4728997 L73.2213988,20.4728997 L73.2220988,20.4742997 Z"></path><path fill="#454249" d="M84.3044986,7.62229987 L84.3044986,12.2555998 L86.2966985,12.2555998 C87.9094985,12.2555998 88.8005985,11.2188998 88.8005985,9.93859983 C88.8005985,8.65899985 87.9094985,7.62159987 86.2966985,7.62159987 L84.3044986,7.62159987 L84.3044986,7.62229987 Z M84.3044986,18.9573997 L84.3044986,20.7913996 L86.9014985,20.7913996 L85.1367986,27.5491995 L73.5139987,27.5491995 L75.2786987,20.7920996 L77.2477987,20.7920996 L77.2477987,7.58379987 L74.6535987,7.58379987 L76.4168987,0.826699986 L88.0389985,0.826699986 L88.5583985,0.805699986 C93.0082984,0.805699986 96.6160984,4.86919992 96.6160984,9.88189983 C96.6160984,14.8938997 93.0082984,18.9573997 88.5590985,18.9573997 L84.3044986,18.9573997 L84.3044986,18.9573997 Z"></path><path fill="#000" d="M83.9824986,7.30449988 L86.2966985,7.30449988 C88.0081985,7.30449988 89.1225985,8.40489986 89.1225985,9.93859983 C89.1225985,11.4722998 88.0081985,12.5733998 86.2966985,12.5733998 L83.9824986,12.5733998 L83.9824986,7.30449988 L83.9824986,7.30449988 Z M84.6264986,11.9377998 L86.2966985,11.9377998 C87.6525985,11.9377998 88.4785985,11.1215998 88.4785985,9.93859983 C88.4785985,8.75559985 87.6525985,7.94009986 86.2966985,7.94009986 L84.6264986,7.94009986 L84.6264986,11.9370998 L84.6264986,11.9377998 Z M83.9824986,21.1098996 L83.9824986,18.6395997 L88.5583985,18.6395997 C92.8206984,18.6395997 96.2940984,14.7272997 96.2940984,9.88189983 C96.2940984,5.03649991 92.8206984,1.12349998 88.5709985,1.12349998 L88.0389985,1.14449998 L76.6660987,1.14449998 L75.0686987,7.26599988 L77.5697987,7.26599988 L77.5697987,21.1098996 L75.5285987,21.1098996 L73.9297987,27.2313995 L84.8868986,27.2313995 L86.4856985,21.1098996 L83.9824986,21.1098996 Z M84.6264986,20.4742997 L87.3165985,20.4742997 L85.3866985,27.8669995 L73.0988988,27.8669995 L75.0287987,20.4742997 L76.9257987,20.4742997 L76.9257987,7.90229987 L74.2377987,7.90229987 L76.1669987,0.508199991 L88.0263985,0.508199991 L88.5583985,0.487199992 C93.1965984,0.487199992 96.9380983,4.70119992 96.9380983,9.88119983 C96.9380983,15.0604997 93.1965984,19.2751997 88.5590985,19.2751997 L84.6264986,19.2751997 L84.6264986,20.4735997 L84.6264986,20.4742997 Z"></path></g></svg> 