<?xml version="1.0" encoding="UTF-8"?> <svg xmlns="http://www.w3.org/2000/svg" width="301" height="34" viewBox="0 0 301 34" fill="none"><path d="M150.724 9.97179C155.824 9.97179 159.194 12.3221 160.813 15.8918C161.545 17.5991 161.966 19.6389 161.966 21.7675C161.966 23.896 161.545 25.9358 160.813 27.6431C159.194 31.2129 155.824 33.5631 150.724 33.5631C145.625 33.5631 142.254 31.2129 140.636 27.6431C139.86 25.9358 139.483 23.896 139.483 21.7675C139.483 19.6389 139.86 17.6434 140.636 15.8918C142.254 12.3442 145.625 9.97179 150.724 9.97179ZM275.002 0.349009V33.0088H271.344V29.5943C269.637 32.2328 266.754 33.5188 263.295 33.5188C258.905 33.5188 255.712 31.4346 254.138 27.9757C253.362 26.2241 252.94 24.0955 252.94 21.7675C252.94 19.4172 253.362 17.333 254.138 15.5592C255.712 12.0338 258.905 9.94962 263.295 9.94962C266.71 9.94962 269.592 11.2356 271.299 13.8298V0.349009H275.002ZM289.015 9.97179C293.96 9.97179 297.441 12.189 299.015 15.7144C299.902 17.7543 300.168 19.8385 300.168 22.61H281.521C281.61 24.1399 281.854 25.4702 282.364 26.6454C283.472 29.1065 285.845 30.4812 289.259 30.4812C291.432 30.4812 293.339 29.9269 294.581 28.8182C295.601 27.887 296.199 26.5567 296.332 25.1155H300.035C299.858 27.5323 298.927 29.4169 297.352 30.9024C295.401 32.6097 292.63 33.5409 289.304 33.5409C284.204 33.5409 280.568 31.3681 278.949 27.6653C278.173 26.0467 277.796 24.0955 277.796 21.7896C277.796 19.3728 278.173 17.5325 278.949 15.8696C280.545 12.2112 284.071 9.97179 289.015 9.97179ZM207.775 0.349009V33.0088H204.116V29.5943C202.409 32.2328 199.526 33.5188 196.068 33.5188C191.677 33.5188 188.484 31.4346 186.91 27.9757C186.134 26.2241 185.713 24.0955 185.713 21.7675C185.713 19.4172 186.134 17.333 186.91 15.5592C188.484 12.0338 191.677 9.94962 196.068 9.94962C199.482 9.94962 202.365 11.2356 204.072 13.8298V0.349009H207.775ZM23.5862 0.171631C24.2292 0.171631 24.6505 0.814628 24.4066 1.39111L24.3844 1.43545L10.5265 31.612C10.0387 32.6984 8.95225 33.4079 7.77709 33.4301H7.71058H1.05877C0.415762 33.4301 -0.00551911 32.7871 0.23838 32.2106L0.260553 32.1663L14.1185 1.98976C14.6285 0.903317 15.6927 0.193803 16.8901 0.171631H16.9566H23.5862ZM26.6017 6.95636C26.8899 6.33553 27.7769 6.31336 28.0873 6.91201L28.1094 6.95636L39.7058 32.1663C39.9718 32.7427 39.5727 33.3857 38.9519 33.4301H38.9075H32.2779C31.0806 33.4301 29.9941 32.7427 29.4842 31.6785L29.462 31.612L23.5419 18.7298C22.8323 17.1778 22.8102 15.3818 23.4975 13.8076L23.5419 13.7189L26.6017 6.95636ZM83.4303 0.171631C84.162 0.171631 84.7385 0.748111 84.7607 1.45762V1.50197V32.0997C84.7607 32.8314 84.1842 33.4079 83.4746 33.4301H83.4303H77.3328C76.6011 33.4301 76.0246 32.8536 76.0024 32.1441V32.0997V1.50197C76.0024 0.770283 76.5789 0.193803 77.2885 0.171631H77.3328H83.4303ZM70.8362 0.171631C71.5014 0.171631 71.9448 0.858972 71.7009 1.45762V1.50197L69.3506 6.62377C68.7076 8.02063 67.3329 8.90752 65.803 8.95186H65.7143H56.2022C51.9229 8.95186 48.3088 12.3221 48.1979 16.6235C48.087 20.9914 51.5903 24.5833 55.914 24.672H56.047H65.6921C67.2221 24.672 68.6189 25.5589 69.2841 26.9336L69.3285 27.0001L71.6788 32.1219C71.967 32.7206 71.5236 33.4301 70.8584 33.4523H70.814H56.0249C46.801 33.4523 39.3066 25.9137 39.3953 16.6678C39.484 7.59935 46.9341 0.349009 55.9583 0.193803H56.2244H70.8362V0.171631ZM250.147 10.5483V33.031H246.444V10.5483H250.147ZM182.919 0.349009V33.0088H179.216V0.349009H182.919ZM174.538 10.26C175.38 10.26 176.112 10.3487 176.799 10.5483V13.8741C176.156 13.7411 175.314 13.6524 174.538 13.6524C170.458 13.6524 168.485 16.2022 168.485 20.548V33.031H164.782V10.5483H168.44V13.4528C169.593 11.5017 171.589 10.26 174.538 10.26ZM213.872 10.5483L219.748 28.4635L225.202 10.5483H228.905L234.36 28.4191L240.28 10.5483H244.249L236.2 33.031H232.409L227.043 15.537L221.721 33.031H217.908L209.903 10.5483H213.872ZM102.92 0.349009L110.747 27.7318L118.197 0.349009H122.499L129.949 27.5544L137.753 0.349009H141.634L132.099 33.0088H127.842L120.303 5.62602L112.765 33.0088H108.552L99.0177 0.349009H102.92ZM264.182 13.2311C261.167 13.2311 258.861 14.5171 257.752 17.0669C257.198 18.2642 256.865 19.8828 256.865 21.7896C256.865 23.6964 257.198 25.2707 257.752 26.5123C258.861 29.0178 261.167 30.3481 264.182 30.3481C268.484 30.3481 271.299 27.4879 271.299 22.3439V21.2353C271.299 16.0913 268.484 13.2311 264.182 13.2311ZM196.932 13.2311C193.917 13.2311 191.611 14.5171 190.502 17.0669C189.948 18.2642 189.615 19.8828 189.615 21.7896C189.615 23.6964 189.948 25.2707 190.502 26.5123C191.611 29.0178 193.917 30.3481 196.932 30.3481C201.234 30.3481 204.05 27.4879 204.05 22.3439V21.2353C204.072 16.0913 201.256 13.2311 196.932 13.2311ZM150.724 13.2311C147.443 13.2311 145.314 14.6723 144.272 16.9339L144.228 17.0226C143.629 18.3086 143.385 19.9937 143.385 21.7896C143.385 23.5856 143.607 25.2042 144.228 26.5567C145.292 28.8626 147.376 30.3481 150.702 30.3481C153.984 30.3481 156.112 28.8626 157.177 26.5567C157.775 25.2042 158.019 23.5856 158.019 21.7896C158.019 19.9937 157.797 18.3086 157.177 17.0226C156.135 14.6945 154.006 13.2311 150.724 13.2311ZM289.06 13.0759C285.69 13.0759 283.45 14.4284 282.341 16.9561C281.965 17.843 281.743 18.7077 281.61 19.7719H296.377C296.244 18.5746 296 17.6434 295.645 16.7122C294.581 14.3841 292.341 13.0759 289.06 13.0759ZM248.351 1.8789C249.703 1.8789 250.768 2.85448 250.768 4.18482C250.768 5.58167 249.703 6.49074 248.351 6.49074C246.821 6.49074 245.845 5.5595 245.845 4.18482C245.845 2.85448 246.821 1.8789 248.351 1.8789Z" fill="black"></path></svg> 