<?xml version="1.0" encoding="UTF-8"?> <svg xmlns="http://www.w3.org/2000/svg" width="138" height="32" viewBox="0 0 138 32" fill="none"><g clip-path="url(#clip0_1924_1848)"><path fill-rule="evenodd" clip-rule="evenodd" d="M120.584 31.9851C122.049 31.7313 127.864 32.6866 131.168 25.2761L137.701 6.97013C138.719 4.06715 137.269 0.134312 131.622 0.0447597L17.4615 0.00744629C14.9713 0.216402 9.90305 -0.104494 6.83427 6.7761L0.301207 25.0746C-0.716838 27.9776 0.733327 31.9104 6.38018 32L120.584 31.9851Z" fill="#FEFEFE"></path><path fill-rule="evenodd" clip-rule="evenodd" d="M17.1019 1.63428C13.4838 1.63428 9.66062 4.0895 8.56933 7.11935L1.96303 24.9477C0.871742 27.9776 2.92248 30.4328 6.54057 30.4328H31.0689L41.6228 1.63428H17.1019Z" fill="#2E2E2E"></path><path fill-rule="evenodd" clip-rule="evenodd" d="M24.39 21.2239C23.9506 22.8359 25.1737 23.6568 26.1771 23.4254C27.0194 23.2239 27.5614 22.4702 27.5174 21.2239C27.4002 17.7836 23.2548 17.2015 23.3573 17.2015C23.4526 17.2015 25.0419 18.8359 24.39 21.2239Z" fill="#FEFEFE"></path><path fill-rule="evenodd" clip-rule="evenodd" d="M19.8333 22.4105C18.4563 23.2239 18.7859 24.7239 19.6502 25.321C20.3753 25.821 21.2615 25.6941 22.0525 24.7836C24.2277 22.2613 21.6863 18.7016 21.7522 18.7762C21.8254 18.8508 21.8694 21.209 19.8333 22.403" fill="#FEFEFE"></path><path fill-rule="evenodd" clip-rule="evenodd" d="M15.8282 19.791C14.3194 19.3209 13.5577 20.6343 13.7775 21.7089C13.9679 22.6194 14.671 23.2015 15.8282 23.1492C19.0288 23.0224 19.5708 18.5671 19.5708 18.6791C19.5708 18.791 18.0474 20.485 15.8282 19.791Z" fill="#FEFEFE"></path><path fill-rule="evenodd" clip-rule="evenodd" d="M14.7209 14.903C13.9665 13.4254 12.5603 13.7761 12.0037 14.709C11.5423 15.4926 11.6521 16.4403 12.5017 17.2836C14.8527 19.6194 18.1705 16.8881 18.0973 16.9627C18.0241 17.0373 15.8342 17.0896 14.7209 14.903Z" fill="#FEFEFE"></path><path fill-rule="evenodd" clip-rule="evenodd" d="M17.1611 10.6045C17.6006 8.99256 16.3774 8.17166 15.374 8.403C14.5318 8.6045 13.9898 9.35823 14.0337 10.6045C14.1509 14.0448 18.2963 14.6269 18.2011 14.6269C18.1059 14.6269 16.5166 12.9926 17.1684 10.6045" fill="#FEFEFE"></path><path fill-rule="evenodd" clip-rule="evenodd" d="M21.7164 9.41049C23.0933 8.60452 22.7637 7.09706 21.8995 6.50004C21.1744 6.00004 20.2882 6.11944 19.5045 7.02989C17.322 9.55228 19.8707 13.112 19.7975 13.0374C19.7243 12.9627 19.6876 10.6045 21.7164 9.41049Z" fill="#FEFEFE"></path><path fill-rule="evenodd" clip-rule="evenodd" d="M25.7226 12.0298C27.224 12.5 27.993 11.1865 27.766 10.1119C27.5829 9.20892 26.8798 8.62683 25.7226 8.6716C22.522 8.79847 21.9727 13.2537 21.9727 13.1418C21.9727 13.0298 23.4961 11.3358 25.7226 12.0298Z" fill="#FEFEFE"></path><path fill-rule="evenodd" clip-rule="evenodd" d="M26.8288 16.9254C27.5831 18.403 28.9894 18.0523 29.546 17.1269C30.0147 16.3433 29.8975 15.3956 29.0479 14.5523C26.6969 12.209 23.3791 14.9478 23.4524 14.8732C23.5256 14.7985 25.7228 14.7538 26.8288 16.9329" fill="#FEFEFE"></path><path fill-rule="evenodd" clip-rule="evenodd" d="M57.0318 18.0896C56.6582 19.1194 57.1929 19.2538 58.3647 19.2538H62.3856L63.3012 16.709H59.5146C58.1523 16.709 57.4273 16.9926 57.0318 18.0896Z" fill="#2E2E2E"></path><path fill-rule="evenodd" clip-rule="evenodd" d="M81.7005 12.0672C80.6385 12.0672 79.8255 12.0672 79.0125 12.4627C77.7455 13.0895 76.9984 14.0746 76.4491 15.6119C75.4311 18.4328 76.3905 19.1791 79.1371 19.1791H80.7996L83.363 12.0597H81.7005V12.0672Z" fill="#2E2E2E"></path><path fill-rule="evenodd" clip-rule="evenodd" d="M96.516 13.0672C96.743 12.4254 96.6258 12.1343 96.223 12H94.1503C92.0923 12 91.0889 12.3507 90.3125 14.3134H95.2562C95.8641 14.1418 96.2596 13.7761 96.516 13.0672Z" fill="#2E2E2E"></path><path fill-rule="evenodd" clip-rule="evenodd" d="M105.497 21.7239L108.155 14.3283C108.77 12.6268 108.646 12.1343 106.822 12.1343H104.237L100.78 21.7239H90.2112C86.1683 21.7239 84.85 19.6268 86.3001 15.5895C87.743 11.5746 90.4456 9.44028 94.4884 9.44028H94.9572L96.7882 9.41789C98.9195 9.41789 99.9668 11.0448 99.2784 12.9627C98.3482 15.5522 97.3448 16.6716 94.5104 16.8507V16.8657H94.2834C94.071 16.8731 93.8512 16.8806 93.6242 16.8806H91.5442V16.8657H89.4055C88.7464 18.8955 89.4788 19.1492 91.5588 19.1492H98.5093L102.018 9.41789H108.067C111.671 9.41789 112.703 10.6567 111.524 13.9254L108.712 21.7164H105.504L105.497 21.7239ZM76.1856 27.2836H69.8796L70.7804 24.7836H76.5298C77.7822 24.7836 79.4009 23.0522 79.8037 21.9328C79.833 21.8657 79.855 21.791 79.8843 21.7239H77.2696C75.4239 21.7239 74.0689 21.7015 73.1827 20.3731C72.4503 19.2761 72.3917 17.5746 73.0949 15.6119C73.7906 13.6716 75.0723 11.9701 76.6031 10.8731C78.1704 9.73132 79.6865 9.42535 81.7006 9.42535H87.5452L83.2753 21.2836C82.0815 24.597 79.3935 27.2836 76.1856 27.2836ZM66.3128 21.7239L72.4943 4.73879H75.8414L69.6599 21.7239H66.3128ZM56.1616 21.7239C53.7374 21.7239 52.8585 20.4403 53.6788 18.1791C54.7041 15.3358 56.5498 14.2612 59.9408 14.2612H64.1668C64.2034 14.1418 64.2401 14.0522 64.2767 13.9552C64.8406 12.388 64.1156 11.9701 62.0795 11.9701H56.7182L57.6338 9.42535H64.2181C67.5432 9.42535 68.6711 10.9925 67.5725 14.0224L64.7967 21.7239H56.1543H56.1616ZM48.0319 21.7239L50.6979 14.3283C51.3131 12.6268 51.1886 12.1343 49.3576 12.1343H46.7722L43.3225 21.7239H40.1073L44.5383 9.42535H50.588C54.1914 9.42535 55.2241 10.6642 54.045 13.9328L51.2398 21.7239H48.0246H48.0319ZM115.75 21.7239C111.707 21.7239 110.382 19.6268 111.839 15.5895C113.282 11.5746 115.985 9.44028 120.027 9.44028H120.496L122.32 9.41789C124.451 9.41789 125.499 11.0448 124.81 12.9627C123.88 15.5522 122.877 16.6716 120.042 16.8507V16.8657H119.815C119.595 16.8731 119.383 16.8806 119.149 16.8806H117.069V16.8657H114.93C114.271 18.8955 115.01 19.1492 117.083 19.1492H131.49L135.95 7.10446C137.041 4.07461 134.991 1.61938 131.372 1.61938H43.4544L32.9004 30.4179H120.818C124.437 30.4179 128.252 27.9627 129.351 24.9328L130.545 21.7164H115.75V21.7239Z" fill="#2E2E2E"></path><path fill-rule="evenodd" clip-rule="evenodd" d="M122.055 13.0672C122.282 12.4254 122.165 12.1343 121.762 12H119.689C117.639 12 116.628 12.3507 115.852 14.3134H120.788C121.396 14.1418 121.791 13.7761 122.048 13.0672" fill="#2E2E2E"></path><path fill-rule="evenodd" clip-rule="evenodd" d="M127.534 12.0149V11.3582H127.747C127.82 11.3731 127.878 11.3806 127.908 11.3955C127.974 11.4179 128.018 11.4702 128.047 11.5299C128.061 11.5672 128.069 11.6418 128.076 11.7537C128.076 11.8657 128.091 11.9552 128.105 12.0149H128.574L128.552 11.9627C128.552 11.9627 128.538 11.9254 128.538 11.9104C128.538 11.8955 128.538 11.8731 128.538 11.8582V11.694C128.538 11.5075 128.486 11.3657 128.376 11.2761C128.318 11.2313 128.23 11.194 128.113 11.1716C128.237 11.1567 128.347 11.1194 128.435 11.0448C128.523 10.9776 128.567 10.8582 128.567 10.7015C128.567 10.4925 128.486 10.3433 128.318 10.2537C128.223 10.2015 128.098 10.1716 127.952 10.1567C127.93 10.1567 127.798 10.1567 127.571 10.1567C127.344 10.1567 127.168 10.1567 127.051 10.1567V12.0224H127.534V12.0149ZM128.083 10.7239C128.083 10.8284 128.054 10.903 127.988 10.9478C127.922 10.9925 127.834 11.0149 127.725 11.0149H127.534V10.4627H127.651C127.776 10.4627 127.871 10.4776 127.937 10.5C128.04 10.5373 128.083 10.6119 128.083 10.7164V10.7239ZM129.453 11.0746C129.453 10.6119 129.292 10.209 128.962 9.8806C128.633 9.55224 128.245 9.38806 127.783 9.38806C127.322 9.38806 126.963 9.53731 126.633 9.84329C126.289 10.1716 126.113 10.5821 126.113 11.0746C126.113 11.5672 126.274 11.9478 126.597 12.2761C126.919 12.6045 127.314 12.7612 127.783 12.7612C128.252 12.7612 128.625 12.6045 128.955 12.2836C129.292 11.9552 129.453 11.5522 129.453 11.0746ZM127.783 9.67164C128.164 9.67164 128.486 9.81343 128.757 10.097C129.028 10.3731 129.16 10.7015 129.16 11.0746C129.16 11.4478 129.028 11.791 128.757 12.0672C128.486 12.3433 128.164 12.4776 127.79 12.4776C127.417 12.4776 127.087 12.3433 126.816 12.0672C126.545 11.791 126.414 11.4627 126.414 11.0672C126.414 10.6716 126.545 10.3657 126.809 10.0896C127.08 9.80597 127.402 9.66418 127.79 9.66418L127.783 9.67164Z" fill="#FEFEFE"></path></g><defs><clipPath id="clip0_1924_1848"><rect width="138" height="32" fill="white"></rect></clipPath></defs></svg> 