<?xml version="1.0" encoding="UTF-8"?> <svg xmlns="http://www.w3.org/2000/svg" height="81" viewBox="0 0 91 81" width="91"><g fill="#454249" fill-rule="evenodd"><path d="m9.804 46.1442h3.926v.579h-.879c-.236 0-.429.043-.429.214v7.81c0 4.097-2.918 5.427-5.578 5.427-1.953 0-4.977-.836-4.977-4.696v-5.882c0-2.443-.066-2.873-.602-2.873h-1.265v-.579h4.612v.579h-.858c-.258 0-.493 0-.493.214v8.219c0 3.71 2.617 4.204 3.946 4.204 1.418 0 4.507-.431 4.507-4.741v-4.764c0-3.068-.236-3.132-.708-3.132h-1.202z"></path><path d="m16.3514 56.0133c0 3.239.107 3.239.902 3.239h.858v.515h-4.206v-.515h.794c.192 0 .406 0 .406-.214v-5.987c0-1.909-.235-1.909-.599-1.909h-1.137v-.514c.3 0 .985-.107 1.501-.172.666-.087 1.159-.171 1.481-.171v1.715c1.115-.921 2.253-1.715 3.647-1.715 2.039 0 2.596 1.373 2.596 2.66v3.068c0 3.239.108 3.239.901 3.239h.858v.515h-4.205v-.515h.795c.192 0 .406 0 .406-.214v-5.599c0-1.696-.793-2.19-1.781-2.19-1.286 0-2.273.622-3.217 1.417z"></path><path d="m26.9285 56.0133c0 3.239.106 3.239.9 3.239h.859v.515h-4.206v-.515h.795c.193 0 .407 0 .407-.214v-5.987c0-1.909-.235-1.909-.6-1.909h-1.138v-.514c.301 0 .987-.107 1.503-.172.665-.087 1.158-.171 1.48-.171z"></path><path d="m28.0858 50.6285h3.905v.514h-1.052c-.191 0-.342 0-.342.129 0 .258.88 2.232 2.768 6.801 1.608-3.389 2.424-5.707 2.424-6.586 0-.344-.279-.344-.537-.344h-.986v-.514h3.647v.514h-.708c-.193 0-.258.022-.408.321-.773 1.61-2.531 5.816-3.626 8.495-.064.13-.128.216-.235.216-.087 0-.13 0-.323-.449-.215-.751-2.21-5.772-2.917-7.274-.45-.965-.623-1.309-1.03-1.309h-.58z"></path><path d="m43.6414 53.1598c-.365-1.008-1.201-2.296-2.382-2.296-1.524 0-2.446 1.996-2.446 3.583zm1.779 5.234c-1.051 1.116-2.38 1.717-3.925 1.717-2.66 0-3.927-2.23-3.927-4.633 0-2.426 1.309-5.193 4.055-5.193 1.824 0 2.854 1.459 3.583 2.939-2.166.686-3.883 1.202-6.393 1.78.106 2.232 1.01 4.163 3.561 4.163 1.096 0 1.974-.365 2.746-1.094z"></path><path d="m47.2449 53.0514c0-1.909-.236-1.909-.601-1.909h-1.137v-.514c.301 0 .987-.107 1.502-.172.666-.087 1.16-.172 1.48-.172v1.844c1.61-1.458 2.19-1.844 2.854-1.844.364 0 .771.172 1.008.473-.237 1.371-.3 1.438-.451 1.438-.321 0-.107-.645-1.245-.645-.685 0-1.243.301-2.166 1.267v3.196c0 3.239.108 3.239.902 3.239h.857v.515h-4.204v-.515h.794c.192 0 .407 0 .407-.214z"></path><path d="m53.2733 52.6666c0 2.295 5.492 1.052 5.492 4.439 0 2.147-2.252 3.005-4.077 3.005-.815 0-1.63-.129-2.4-.409-.13-.813-.281-1.629-.281-1.843 0-.128.085-.194.237-.194.17 0 .214.216.258.365.148.794 1.671 1.373 2.766 1.373 1.096 0 2.447-.644 2.447-1.974 0-2.489-5.386-1.007-5.386-4.355 0-1.46 1.46-2.789 3.37-2.789.878 0 1.714.128 2.4.45.066.58.13 1.31.13 1.46 0 .084-.042.149-.15.149-.149 0-.172-.086-.237-.192-.106-.173-.557-1.16-2.423-1.16-.902 0-2.146.559-2.146 1.675"></path><path d="m60.9324 47.1696c.429 0 .793.366.793.795 0 .451-.364.815-.793.815-.428 0-.794-.364-.794-.815 0-.429.366-.795.794-.795zm.751 8.844c0 3.239.106 3.239.901 3.239h.859v.515h-4.205v-.515h.793c.193 0 .407 0 .407-.214v-5.987c0-1.909-.235-1.909-.601-1.909h-1.136v-.514c.3 0 .986-.108 1.502-.172.665-.087 1.158-.172 1.48-.172z"></path><path d="m65.6961 50.6285h2.338c-.065.492-.173.514-.321.514h-2.017v6.137c0 .964.106 1.995 1.5 1.995.494 0 1.009-.15 1.459-.345l.194.43c-.665.385-1.781.751-2.533.751-1.222 0-1.866-.814-1.866-1.973v-6.995h-.471c-.451 0-.537 0-.537-.151 0-.106.086-.214.216-.342l1.737-2.061h.301z"></path><path d="m68.0975 50.6285h3.904v.514h-1.05c-.193 0-.343 0-.343.129 0 .258 1.993 4.847 2.832 6.824 2.273-4.871 2.445-6.224 2.445-6.609 0-.344-.215-.344-.514-.344h-.966v-.514h3.583v.514h-.73c-.365 0-.278 0-.579.709-.364.899-4.827 11.714-5.771 12.959-.729.192-1.481.279-2.21.279-.151 0-.257-.109-.257-.259 0-.086.086-.15.342-.257.688-.343 1.931-.559 3.97-5.02l-3.048-7.102c-.427-.988-.621-1.309-1.029-1.309h-.579z"></path><path d="m5.1854 68.5953c-1.427 0-1.885 2.068-1.885 3.229 0 .75.18 1.73 1.063 1.73 1.427 0 1.886-2.067 1.886-3.227 0-.752-.181-1.732-1.064-1.732m-2.624 3.447c0-2.092 1.355-3.772 2.902-3.772 1.149 0 1.525.907 1.525 1.838 0 2.103-1.355 3.773-2.902 3.773-1.15 0-1.525-.907-1.525-1.839"></path><path d="m9.6483 68.7897h-.907c-.327 3.109-.509 4.413-.544 4.777-.291 2.793-1.911 3.108-2.42 3.108-.265 0-.772-.086-.772-.423 0-.195.193-.291.363-.291.265 0 .47.169.616.388h.084c1.015 0 1.318-1.306 1.512-3.037.06-.543.302-2.709.496-4.522h-.786l.061-.29h.761l.098-.699c.229-1.671.929-2.76 2.138-2.76.244 0 .689.109.689.424 0 .157-.143.241-.289.241-.254 0-.424-.181-.593-.338-.616 0-1.088.593-1.27 2.176l-.109.956h.932z"></path><path d="m19.8538 63.4039c0 .129-.021.257-.194.257-.171 0-.194-.128-.213-.3-.129-.88-1.91-1.115-2.555-1.115-2.186 0-3.068 1.502-3.068 2.595 0 3.733 7.038 2.253 7.038 6.973 0 2.681-2.488 4.162-5.043 4.162-.987 0-2.295-.215-3.216-.579-.171-1.052-.301-1.759-.301-1.91 0-.149.086-.235.214-.235.215 0 .259.215.279.386.258 1.202 2.382 1.63 3.368 1.63 1.824 0 3.605-.944 3.605-2.789 0-4.206-6.973-2.382-6.973-7.21 0-2.187 2.338-3.732 4.742-3.732.708 0 1.63.086 2.317.408z"></path><path d="m26.6546 70.3981c-1.931.686-3.969 1.48-3.969 3.175 0 .795.406 1.308 1.222 1.308 1.116 0 2.146-.837 2.747-1.758zm0-2.016c0-.472 0-1.523-1.566-1.523-.686 0-1.544.215-2.081.664 0 .901-.366 1.866-1.03 1.866-.258 0-.451-.235-.451-.45 0-1.717 2.51-2.853 4.119-2.853 2.232 0 2.254 1.201 2.254 2.789v3.411c0 1.352 0 2.339 1.502 2.661l-.687.965c-.795 0-1.867-.902-1.997-2.039-.772.88-2.295 2.039-3.496 2.039-1.18 0-1.867-.816-1.867-1.995 0-1.932 2.231-2.854 5.3-4.098z"></path><path d="m31.9749 71.8141c0 3.239.107 3.239.901 3.239h.858v.514h-4.204v-.514h.793c.192 0 .408 0 .408-.214v-5.986c0-1.909-.236-1.909-.602-1.909h-1.136v-.515c.3 0 .987-.107 1.502-.172.664-.086 1.158-.171 1.48-.171v1.716c1.116-.923 2.253-1.716 3.647-1.716 2.038 0 2.596 1.373 2.596 2.66v3.068c0 3.239.107 3.239.9 3.239h.858v.514h-4.204v-.514h.792c.196 0 .411 0 .411-.214v-5.6c0-1.694-.794-2.188-1.783-2.188-1.287 0-2.273.622-3.217 1.414z"></path><path d="m45.617 71.8561c0 3.004.148 3.004.879 3.004h1.759c1.845 0 5.729-.365 5.729-5.836 0-5.491-4.506-6.371-5.558-6.371h-2.015c-.409 0-.794 0-.794.215zm-1.396-6.458c0-2.444-.065-2.874-.6-2.874h-1.266v-.579h6.479c4.398 0 6.608 3.153 6.608 6.588 0 2.766-1.608 7.034-7.058 7.034h-5.472v-.579h.88c.238 0 .429-.041.429-.214z"></path><path d="m57.9959 62.9723c.429 0 .793.365.793.794 0 .451-.364.814-.793.814-.43 0-.795-.363-.795-.814 0-.429.365-.794.795-.794zm.751 8.842c0 3.239.108 3.239.901 3.239h.857v.514h-4.203v-.514h.793c.193 0 .407 0 .407-.214v-5.986c0-1.909-.235-1.909-.602-1.909h-1.136v-.515c.3 0 .989-.107 1.503-.172.664-.086 1.158-.172 1.48-.172z"></path><path d="m66.5985 68.9606c-.364-1.009-1.201-2.296-2.382-2.296-1.522 0-2.445 1.997-2.445 3.582zm1.781 5.234c-1.052 1.117-2.382 1.717-3.927 1.717-2.661 0-3.926-2.231-3.926-4.634 0-2.424 1.308-5.192 4.055-5.192 1.824 0 2.854 1.46 3.583 2.938-2.167.688-3.883 1.203-6.393 1.782.107 2.231 1.008 4.162 3.561 4.162 1.093 0 1.975-.365 2.746-1.095z"></path><path d="m74.9646 69.6256c0-1.395-.793-2.961-2.381-2.961-1.437 0-2.016 1.181-2.016 2.468 0 1.394.772 3.024 2.36 3.024 1.437 0 2.037-1.265 2.037-2.531m-5.341 8.625c0 1.695 1.994 2.103 3.347 2.103 2.037 0 3.818-.903 3.818-2.296 0-1.009-.751-1.887-2.724-2.017l-1.802-.108c-1.224.108-2.639.965-2.639 2.318m8.197-.515c0 2.317-3.004 3.197-5.344 3.197-1.631 0-3.883-.387-3.883-2.447 0-1.502 1.158-2.231 2.382-2.789-.623-.192-1.309-.535-1.309-1.264 0-.623.815-1.482 1.309-2.039-1.051-.558-1.653-1.438-1.653-2.638 0-2.039 1.545-3.67 3.583-3.67.387 0 .751.108 1.138.172.601.128 1.243.215 1.844.215 1.46 0 1.009-.515 1.395-.515.108 0 .172.064.172.172 0 .085-.064.32-.107.429-.171.515-.108.728-.752.728-.278 0-.815-.085-1.158-.129.579.645.773 1.308.773 2.167 0 1.995-1.631 3.412-3.584 3.412-.386 0-.751-.065-1.114-.15-.28.279-.795.986-.795 1.351 0 .665.645.793 3.39.944 1.074.065 3.713.194 3.713 2.854"></path><path d="m81.786 75.3619c2.359 0 2.918-2.208 2.918-4.161 0-2.06-.944-4.377-3.304-4.377s-2.92 2.211-2.92 4.162c0 2.06.945 4.376 3.306 4.376m.062-9.18c2.599 0 4.207 1.994 4.207 4.612 0 3.861-3.026 5.213-4.721 5.213-2.595 0-4.204-1.996-4.204-4.612 0-3.862 3.024-5.213 4.718-5.213"></path><path d="m26.1751 47.1608c.428 0 .792.363.792.794 0 .45-.364.815-.792.815-.431 0-.794-.365-.794-.815 0-.431.363-.794.794-.794"></path><path d="m61.0828 26.11c.297-.042-.083-.345-.255-.518-.173-.172-.385-.313-.485-.076-.066.157.05.173.141.318.183.288.269.323.599.276zm-14.065 12.306c.056-.099.104-.16.169-.178.094-.025.204.018.24.038.169.096.149.239.336.188.185-.052.096-.165.189-.335.077-.147.157-.29.235-.431.081-.146.165-.286.246-.426.082-.143.147-.296.23-.433.087-.142.186-.273.272-.409.09-.14.179-.278.269-.412.093-.136.177-.277.27-.409.096-.135.211-.254.306-.383.1-.133.201-.26.301-.386.104-.13.196-.265.3-.389.106-.127.231-.235.339-.356.11-.124.208-.255.318-.374.113-.12.216-.248.33-.362.117-.117.246-.218.363-.329.121-.113.231-.234.351-.342.124-.11.256-.209.379-.312.127-.107.245-.219.372-.319.129-.103.274-.181.404-.278.132-.099.251-.213.382-.307.135-.095.276-.178.408-.269.136-.092.262-.197.398-.284.199-.158.345-.031.115.26-.084.108-.22.234-.416.384-.114.083-.234.186-.363.296-.112.096-.231.197-.352.311-.11.1-.216.215-.331.329-.108.106-.233.204-.346.319-.105.109-.219.217-.329.334-.104.113-.189.247-.297.364-.103.116-.208.233-.312.352-.103.116-.208.232-.31.352-.101.119-.21.233-.31.355-.101.12-.203.237-.302.359s-.204.24-.3.363c-.097.123-.17.266-.265.389-.096.126-.194.248-.287.373-.093.128-.199.245-.288.37-.096.135-.187.27-.276.401-.095.137-.173.28-.259.411-.091.141-.19.27-.272.402-.09.145-.17.286-.249.417-.089.151-.166.293-.24.422-.093.159-.182.296-.249.415-.143.246-.226.412-.255.42-.097.026-.19-.107-.266-.237-.09-.155-.042-.471-.143-.318-.123.188-.067.207-.12.425-.052.217-.127.211-.093.432.021.141.313.134.181.188-.192.08-.218.01-.399-.093-.002-.111.043-.378.079-.571.023-.129.036-.127.058-.256 0-.002-.014-.001-.013-.002.009-.016.013-.031.022-.042.12-.15.312-.178.169-.256-.211-.116-.267-.03-.468-.043.018-.054.055-.086.079-.128zm12.604-12.66c.119-.166.336-.272.339-.273.085-.055.121-.03.17-.119.05-.09.013-.107.013-.209 0-.061-.057-.073-.015-.117.142-.032.347-.045.569.052.325.138.277.478.429.269.151-.208-.014-.247-.089-.504-.052-.174-.138-.347-.235-.457-.066-.075-.203-.205-.367-.399-.101-.119-.199-.264-.292-.448-.019-.063-.082-.107-.019-.125.285-.078.332.113.583-.045.146-.093.124-.204.007-.33-.203-.218-.468-.139-.468-.346s-.08-.412.22-.564c0 0 .084.295.316.467.127.095.615.15.616.15.025.27.02.178.042.449.023.27.025.27.046.541.017.226-.108.293-.12.301-.046.036-.062.03-.092.082-.03.056-.021.067-.024.13-.007.216-.004.405-.005.56-.003.306.001.494.018.559.042.259.06.257.099.517.002.012.029.245.053.389-.169.077-.18.006-.364.013-.186.008-.189.068-.369.027-.285-.067-.312-.169-.519-.273-.124-.062-.349.012-.509.073-.021-.097-.031-.207-.031-.278 0-.037-.01-.075-.002-.092zm.414-4.701c.14-.186.251-.303.253-.305.011-.009.007 0 .021.004.049.037.109.079.193.106.116.039.305-.091.442-.197.004-.003-.013.012-.01.016.119.125.294.266.423.426.162.198.281.404.318.504.032.093-.08.397-.254.618-.006.007-.01.021-.019.023-.215.049-.465.042-.574-.105-.207-.276-.155-.317.025-.267.201.056.173.191.38.168.158-.019.228-.08.196-.236-.049-.227-.149-.171-.313-.335s-.099-.328-.331-.328c-.353.001-.35.347-.593.381-.103.015-.253-.062-.381-.142.061-.131.154-.237.224-.331zm.648-1.373c.129-.05.291.032.278-.116-.024-.268-.103-.251-.189-.507.024.002.036.017.067.024.097.02.157.073.2.163.059.124.056.263.026.321-.042.083-.05.208-.077.326-.039.022-.101.043-.128.034-.055-.018-.146-.11-.213-.18.006-.024.03-.045.036-.065zm1.146 7.167c.047.055.115.192.162.354-.158-.05-.326-.09-.499-.123-.165-.033-.333-.077-.508-.093-.168-.017-.34-.006-.514-.006-.14 0-.279.011-.415.021-.141.01-.282.02-.416.042.039-.118.127-.286.334-.384.102-.05.275-.074.463-.096.154-.018.32-.014.472-.02.268.002.508.001.597.002.017.004.024-.015.038-.006.002.002.139.137.286.309zm.3 1.195c.038.084-.099.248-.132.392-.027.121-.038.257-.058.394-.213-.023-.613-.05-.614-.051-.001.001-.006.017-.007.017-.179-.012-.351-.026-.518-.031-.18-.004-.35-.024-.515-.022-.015-.142-.05-.314-.11-.506-.049-.154-.117-.317-.211-.48.165-.018.334-.028.506-.028.191 0 .382-.009.563.014.194.023.381.06.555.106.191.051.502.113.541.195zm-15.139 15.999c0-.183-.009-.361-.009-.519 0-.224-.023-2.374-.023-2.473 0-.214-.372-.625-.372-.625.107-.189.354.265.71.193.229-.047-.225-.28-.194-.43.02-.101.273-.104.426-.097.093.26-.049.29.041.552.061.18.183.06.324.202.084.084.156.203.181.333.026.128.031.287.042.463.009.145.012.302.014.464.002.152-.013.31-.015.465-.004.159.013.316.007.465-.006.17-.037.327-.045.462-.003.047-.001.084-.001.123-.002.023-.003.043-.003.05 0 .079-.054.535-.09.83h1.717c0-.008 0-.014.001-.022.005-.135-.008-.296.003-.479.008-.146.027-.304.041-.476.011-.15.035-.308.053-.477.013-.152.019-.311.038-.476.017-.153.024-.314.046-.477.02-.154.061-.309.086-.471.023-.155.058-.311.086-.471.026-.154.053-.312.085-.47.029-.155.032-.317.065-.475.033-.155.068-.312.105-.468.037-.154.109-.301.149-.457.04-.154.046-.317.09-.473.044-.152.114-.299.162-.452.047-.152.089-.308.141-.459.069-.147.132-.305.21-.465.071-.147.161-.293.236-.45.072-.148.123-.313.198-.47.073-.15.149-.303.224-.458.074-.151.187-.286.263-.439.077-.152.118-.321.194-.474.077-.152.173-.295.25-.445.078-.152.135-.316.213-.466.095-.137.205-.264.303-.393.101-.134.209-.258.313-.385.104-.129.213-.254.32-.378.11-.126.206-.262.318-.382.112-.122.248-.223.362-.338.117-.119.219-.253.336-.364.122-.116.242-.23.362-.338.126-.112.26-.21.383-.313.13-.111.261-.21.386-.31.133-.107.267-.203.394-.299.139-.104.262-.215.391-.306.141-.102.285-.184.413-.269.15-.101.274-.212.4-.291.004-.002.011.01.015.013.004-.003.14-.101.443-.22.129-.05.294-.079.483-.131.144-.04.299-.114.479-.148.152-.031.321-.035.498-.057.157-.02.307-.033.484-.046.085.231-.002.239-.002.484 0 .247.008.247.008.492s.015.245.015.49-.008.245-.008.491c0 .245.024.245.024.491 0 .245-.038.245-.038.491s.017.246.017.491c0 .244.014.244.014.489 0 .244-.021.244-.021.489 0 .246.019.246.019.491 0 .246-.028.246-.028.491s.034.245.034.491c0 .245-.017.245-.017.489 0 .246.016.246.016.49 0 .246-.03.246-.03.492 0 .245.025.245.025.491 0 .245-.011.245-.011.49 0 .246-.007.246-.007.491 0 .246-.002.246-.002.491 0 .246-.009.246-.009.492s.038.246.038.491-.015.245-.015.491-.018.246-.018.492c0 .245.004.245.004.492 0 .245.019.245.019.491s-.019.246-.019.492c0 .244.001.244.001.49s-.008.198-.008.491c0 .145.008.314.008.493 0 .158.013.325.013.492s-.027.335-.027.494v.009h.785v-.008c0-.245.004-.245.004-.491s-.033-.246-.033-.492.014-.246.014-.492c0-.245.006-.245.006-.49 0-.246.008-.246.008-.492 0-.245-.037-.245-.037-.49 0-.246.033-.246.033-.491 0-.246-.01-.178-.01-.491 0-.139-.011-.305-.011-.492 0-.149-.011-.315-.011-.491 0-.156.016-.32.016-.492 0-.158.023-.322.023-.493 0-.158-.002-.322-.002-.49 0-.16-.036-.323-.036-.491 0-.161.004-.324.004-.491 0-.162-.003-.326-.003-.492 0-.163.018-.327.018-.492 0-.163-.005-.327-.005-.491s-.01-.328-.01-.493.019-.328.019-.492c0-.165-.009-.329-.009-.493 0-.165-.005-.33-.005-.493 0-.166.032-.331.032-.493 0-.166-.01-.331-.01-.493 0-.168-.002-.333-.002-.493 0-.169-.021-.334-.021-.494 0-.17.008-.334.008-.491 0-.174-.007-.339-.007-.494 0-.176.027-.341.027-.492 0-.186-.016-.351-.016-.49 0-.313-.004-.418.098-.499.174-.14.359.03.61.046.088.043.238.109.435.216.125.068.265.152.425.244.132.075.28.148.43.24.132.081.266.175.41.268.133.085.279.161.42.255.131.09.25.207.386.305.131.094.273.178.405.279.129.098.252.207.381.312.125.103.246.215.37.324.122.108.249.212.37.324.118.113.242.221.357.338.115.118.242.224.351.347s.19.27.292.398c.103.13.205.257.298.391.051.074.128.149.204.226.009.019.018.039.034.064.081.133.28.37.365.517.083.142.146.304.231.461.085.154.184.305.27.472.086.165.164.341.25.519.087.179.165.367.251.557.086.193.18.388.264.593.085.208.181.418.265.639.086.225.192.451.273.689.083.244.205.459.28.716.079.267.161.539.23.818.072.287.189.569.248.869l.172-1.318c-.082-.273-.164-.536-.253-.795-.086-.252-.187-.494-.279-.733-.089-.233-.172-.462-.264-.682-.092-.216-.171-.432-.264-.634-.092-.202-.204-.388-.297-.576-.091-.187-.175-.372-.267-.545-.093-.174-.195-.335-.286-.498s-.181-.32-.269-.47c-.091-.155-.165-.309-.251-.448-.091-.145-.197-.272-.281-.4-.089-.139-.178-.265-.259-.382-.033-.047-.064-.091-.095-.135l-.001-.017c-.035-.046-.073-.091-.109-.138-.017-.024-.036-.052-.052-.075l-.004.003c-.048-.062-.093-.124-.144-.185-.107-.129-.225-.248-.339-.371-.114-.124-.224-.251-.343-.369-.119-.119-.233-.245-.356-.357-.124-.115-.264-.21-.39-.319-.13-.11-.253-.224-.383-.328-.133-.106-.276-.197-.407-.296-.138-.102-.274-.202-.409-.298-.14-.098-.268-.209-.405-.3-.145-.097-.298-.168-.435-.254-.149-.095-.294-.179-.43-.26-.155-.092-.306-.179-.44-.254.079.018.252.034.473.1.128.039.276.09.446.149.134.047.281.104.439.166.136.055.279.119.432.185.136.06.274.135.422.206.136.064.289.105.434.18.135.07.272.147.414.225.134.074.268.156.406.239.132.077.265.161.401.246.129.083.286.132.419.223.049.033.111.071.174.108.096.063.193.124.288.193.131.094.25.208.382.306.129.097.276.175.405.278.125.1.245.213.372.319.123.104.255.202.378.313.12.106.231.228.351.341.117.111.247.212.363.329.115.115.217.242.33.363.112.117.208.25.319.373.107.121.232.228.339.355.103.124.196.26.298.389.014.018.028.036.042.053v-1.151c-.064-.069-.126-.14-.19-.21-.108-.121-.214-.245-.324-.359-.113-.119-.234-.227-.347-.34-.116-.115-.225-.234-.343-.344-.118-.112-.249-.209-.368-.315-.121-.109-.23-.23-.352-.333-.126-.104-.263-.192-.388-.292-.128-.103-.248-.211-.376-.307-.131-.098-.259-.197-.389-.29-.133-.094-.272-.178-.405-.266-.138-.091-.278-.172-.412-.256-.14-.087-.273-.18-.41-.26-.002-.001-.003-.001-.005-.002-.072-.048-.148-.097-.221-.14-.148-.087-.304-.151-.446-.229-.151-.084-.285-.191-.428-.265-.154-.079-.322-.118-.469-.186-.158-.074-.306-.151-.453-.213-.163-.07-.32-.127-.466-.183-.17-.066-.327-.122-.471-.171-.182-.061-.314-.153-.293-.228.047-.167.053-.454.054-.457.055-.143.075-.233.027-.377-.048-.146-.109-.05-.238-.133-.071-.045-.136-.103-.215-.144-.005-.003-.007.009-.007.004-.012-.062-.036-.266-.105-.474-.055-.163-.143-.319-.233-.423-.116-.136-.22-.247-.296-.31-.017-.11-.01-.186-.04-.367-.002-.016-.051-.297-.095-.594-.004-.028-.027-.111-.027-.227 0-.176.016-.422.023-.655.09-.102.18-.278.18-.575 0-.027.009-.054.008-.084-.017-.212.004-.192-.016-.425-.011-.136-.047-.285-.059-.422-.017-.198-.002-.362-.006-.419.061-.085.133-.231.201-.389.059-.132.099-.278.099-.424 0-.068-.018-.13-.04-.194-.038-.103-.087-.25-.184-.386-.081-.113-.202-.209-.292-.316-.106-.128-.196-.253-.267-.331.024-.222.084-.501.138-.61.051-.1.048-.23.048-.357 0-.141-.02-.285-.081-.413-.055-.113-.127-.213-.22-.288-.092-.074-.207-.112-.33-.14-.305-.069-.515.004-.635.095-.123.093-.209.22-.261.341-.086.195-.111.388-.112.42 0 .002.009-.005.009-.004-.037.126-.081.266-.12.397-.052.181-.076.346-.094.405-.069.066-.179.159-.285.294-.075.095-.16.208-.233.336-.064.112-.118.239-.169.373-.064.171-.245.44-.245.585 0 .18.072.333.139.471.078.158.18.292.298.388.048.231-.012.238-.012.475s.143.129.143.367c0 .237-.013.237-.013.473v.476c0 .237.029.069-.016.302-.107.087-.252.211-.366.371-.108.151-.111.515-.111.699 0 .11.012.207.03.303-.079.043-.28.018-.361.224-.084.217.035.226.066.456.031.232.074.232.063.465-.083.034-.129-.005-.206.034-.162.083-.266.042-.323.215-.058.176-.033.289.047.455.002.003.19.199.082.428-.041.088-.173.174-.354.223-.141.037-.292.099-.461.152-.143.044-.3.083-.462.141-.145.051-.303.09-.461.152-.145.056-.282.145-.436.212-.144.061-.306.094-.457.165-.143.066-.286.142-.435.217-.14.071-.274.163-.42.242-.138.075-.29.137-.432.22-.138.081-.271.172-.41.259-.136.084-.276.165-.412.256-.133.089-.272.172-.406.268-.13.092-.258.191-.389.289-.127.097-.248.205-.375.306-.126.1-.262.188-.388.293-.122.103-.231.223-.353.332-.12.107-.25.204-.369.316-.115.11-.225.228-.342.344-.113.113-.233.221-.346.34-.111.115-.216.239-.326.359-.107.119-.217.238-.323.362-.105.121-.185.265-.289.392-.101.124-.229.228-.33.357-.097.126-.196.255-.293.387-.095.129-.168.275-.262.409-.091.131-.192.259-.282.395-.089.133-.174.271-.26.41-.086.135-.161.279-.245.419-.083.137-.17.274-.251.416-.08.139-.168.273-.247.417-.129-.026-.28-.029-.443.013-.109.028-.247.081-.382.193-.094.08-.204.18-.287.325-.123.214-.151.429-.151.623 0 .09-.014.183.012.268.044.135.129.226.2.303-.011.081-.027.168-.035.261-.188.004-.436.057-.554.323-.043.097-.065.203-.065.31 0 .135.055.274.088.389-.104.099-.193.229-.254.379-.056.136-.121.279-.149.434-.028.15-.027 2.403-.035 2.566-.01.18-.0068823.351-.004.5.002.043.003.08.004.119h1.608c-.002-.152-.009-.307-.009-.458zm30.99-4.027c-.231.081-.25-.001-.496-.001-.245 0-.349.009-.426-.047-.078-.054-.059-.206-.059-.446s.015-.24.015-.48c0-.242-.036-.242-.036-.483 0-.239.014-.189.014-.479 0-.141-.008-.304-.008-.481 0-.152.012-.314.012-.481 0-.16.002-.323.002-.484 0-.166-.018-.329-.018-.482 0-.177.035-.341.035-.481 0-.291-.127-.32.055-.476.187.032.27.115.414.222.148.109.286.235.37.399.08.159.121.343.121.533 0 .229-.019.229-.019.457s-.001.228-.001.455v.456c0 .229.032.229.032.457s-.018.228-.018.457c0 .228.008.205.008.457 0 .147-.016.31-.016.458 0 .252.077.45.019.47zm1.378-.262c0-.25-.023-.25-.023-.499 0-.25.026-.25.026-.499 0-.25-.003-.25-.003-.5 0-.249.017-.249.017-.499s-.008-.25-.008-.499c0-.25-.017-.25-.017-.499 0-.25.006-.25.006-.499s-.004-.249-.004-.499-.01-.25-.01-.499c0-.25.035-.25.035-.5s-.013-.25-.013-.5-.017-.25-.016-.501c0-.25.008-.25.008-.5 0-.168-.019-.332-.069-.482-.05-.157-.118-.312-.214-.442-.095-.131-.223-.243-.355-.338-.13-.095-.286-.147-.444-.198-.151-.049-.305-.089-.473-.089-.169 0-.324.037-.476.085-.156.051-.312.105-.444.2-.131.095-.23.227-.326.36-.094.131-.192.265-.243.421-.049.151-.082.315-.082.483 0 .249.018.249.018.499 0 .249-.016.187-.016.498 0 .143.036.312.036.499 0 .155-.013.322-.013.5 0 .158-.029.325-.029.498 0 .162.039.329.039.499 0 .163-.023.33-.023.499 0 .166-.016.332-.016.499 0 .168.021.335.021.501 0 .169.002.336.002.5 0 .171.018.337.018.5 0 .172-.022.34-.022.5 0 .178.018.346.018.5 0 .188-.003.357-.003.5 0 .311-.122.411.111.496.149.053.134.011.392.011.259 0 .259-.005.518-.005s.259-.017.519-.017c.258 0 .258.016.517.016.26 0 .26.011.519.011.26 0 .199.007.453-.044.135-.026.086-.219.086-.469 0-.249-.017-.249-.017-.498zm-11.509-.757c-.18-.036-.466.216-.288.287 0 0 .503.107.825.572.322.467.537.682.537.86 0 .18.43.179-.036-.788-.334-.695-.86-.895-1.038-.931zm.48 5.194c-.001-.154-.018-.314-.018-.478-.001-.16.034-.321.034-.48-.001-.162-.039-.324-.04-.479 0-.167.034-.329.033-.479-.001-.177-.024-.339-.026-.48 0-.224.006-.393.006-.478 0-.14-.007-.331-.066-.528-.048-.159-.121-.33-.221-.488-.092-.144-.211-.286-.356-.4-.132-.103-.302-.161-.484-.217-.155-.048-.325-.093-.521-.093-.164 0-.313.03-.446.067-.157.043-.3.095-.419.172-.134.087-.239.201-.331.309-.108.124-.198.252-.26.369-.122.233-.169.333-.175.431-.019.31.236.219.385.493-.036.125-.031.253-.031.39.001.239-.014.239-.013.477 0 .239.012.239.012.478.001.238-.025.238-.024.478.001.239.025.238.026.478 0 .238-.025.238-.024.478.001.152-.001.208-.003.29h2.962zm-3.547.228c0-.247-.012-.247-.013-.494s-.027-.246-.028-.493c0-.247.014-.247.014-.494-.001-.247-.012-.247-.013-.494s.026-.247.025-.493c-.001-.248-.026-.248-.026-.496-.001-.247.025-.247.023-.494-.002-.162.021-.306.054-.441.038-.153.08-.296.15-.419.079-.135.184-.243.284-.344.113-.113.214-.233.33-.304.154-.095.309-.144.416-.17.131-.033.263-.019.375-.024.216-.008.206.091.36-.014.245-.168.435-.109.435-.406 0-.267-.405-.002-.436-.212-.029-.211.172-.031.282-.208.14-.231-.053-.275-.002-.54.033-.181.111-.107.291-.226.18-.12.161-.21.011-.226-.339-.036-.575.051-.656-.131-.049-.11.149-.195.073-.372-.084-.2-.224-.026-.387.125-.084.078-.158.2-.16.394-.001.15.144.169.196.377.065.262.049.272.017.54-.009.082-.083.046-.161.067-.133.026-.283.064-.443.122-.136.05-.285.095-.428.172-.13.071-.261.157-.387.252-.12.091-.247.185-.353.299-.103.11-.17.254-.253.388-.08.127-.159.257-.215.405-.052.139-.083.288-.108.447-.024.145-.048.297-.045.458.002.242-.001.242-.001.481 0 .241.017.241.017.481 0 .241-.035.241-.035.481s.037.24.037.48-.034.24-.034.48.026.24.026.48-.007.24-.007.481c0 .074-.001.124-.004.167h.779zm-8.849-5.721c-.18-.035-.466.216-.286.287 0 0 .5.107.823.573s.537.681.537.86c0 .178.43.178-.035-.788-.334-.696-.861-.896-1.039-.932zm.48 5.195c-.001-.155-.018-.316-.018-.479 0-.159.034-.32.0330216-.48 0-.162-.0380216-.323-.0380216-.478-.001-.168.033-.329.032-.48 0-.177-.025-.339-.025-.48 0-.224.005-.394.005-.479 0-.138-.007-.329-.066-.527-.049-.158-.12-.33-.22-.487-.093-.145-.212-.287-.357-.4-.131-.103-.301-.161-.484-.217-.155-.048-.325-.093-.52-.093-.165 0-.313.03-.446.066-.157.044-.301.095-.42.172-.133.088-.238.202-.331.31-.108.123-.198.251-.26.37-.121.231-.169.332-.175.429-.02.311.236.22.386.493-.036.125-.031.253-.031.39 0 .239-.015.239-.014.478s.012.239.012.477c.001.239-.024.239-.023.478 0 .239.025.239.025.478 0 .24-.024.24-.024.478.001.239-.004.239-.004.478 0 .044.003.079.007.111h2.953c.001-.043.003-.083.003-.128zm-3.56-.266c0-.246-.027-.246-.028-.493 0-.247.015-.247.014-.494 0-.247-.012-.247-.012-.494-.001-.247.025-.247.024-.494-.001-.248-.026-.248-.026-.496-.001-.246.026-.246.024-.495-.003-.159.02-.304.053-.44.038-.153.08-.296.151-.419.078-.135.183-.242.283-.342.113-.115.214-.235.33-.306.154-.095.309-.144.417-.17.131-.033.262-.019.373-.023.218-.008.208.09.361-.015.247-.167.435-.108.435-.405 0-.267-.405-.003-.436-.213-.029-.21.172-.029.282-.208.14-.231-.053-.275-.003-.54.035-.18.112-.106.293-.227.179-.119.16-.209.01-.224-.339-.036-.576.05-.656-.131-.048-.111.149-.196.074-.373-.085-.2-.225-.026-.388.125-.084.078-.158.2-.16.394-.001.152.144.169.197.377.065.262.049.273.015.541-.008.081-.082.046-.16.068-.131.024-.282.062-.443.121-.136.05-.285.095-.428.172-.131.07-.26.156-.387.251-.12.091-.247.185-.354.299-.102.111-.169.254-.252.388-.079.127-.159.257-.215.405-.052.14-.083.289-.108.448-.024.144-.047.296-.045.459.001.24-.001.24-.001.48s.017.24.017.48c0 .241-.035.241-.035.481s.037.24.037.48c0 .241-.033.241-.033.48 0 .24.024.24.024.48 0 .242-.006.242-.006.482 0 .233-.017.242-.019.465h.786c.003-.141.009-.18.009-.381-.001-.246-.014-.246-.014-.493zm27.805-6.17c0-.241-.013-.241-.013-.482 0-.24-.026-.24-.026-.481 0-.24.015-.24.015-.481s-.011-.194-.011-.481c0-.143.025-.307.025-.482 0-.155-.024-.319-.024-.483 0-.163.024-.327.024-.483 0-.175.006-.34.006-.483 0-.287-.017-.24-.017-.481 0-.156.002-.313-.025-.461-.026-.152-.1-.292-.152-.435-.054-.145-.105-.288-.183-.421-.077-.132-.143-.276-.242-.392-.099-.118-.235-.2-.352-.299-.118-.099-.23-.205-.364-.281-.132-.077-.267-.157-.412-.211-.142-.052-.299-.073-.451-.1-.148-.027-.624-.031-.78-.031-.073.173.147.216.215.351.084.166.125.205.202.376.169 0 .242.016.399.058.162.043.317.112.458.195.145.082.27.196.387.312.116.116.209.253.292.397.082.142.15.291.194.454.042.156.082.319.082.488 0 .24-.002.24-.002.481s-.02.241-.02.481c0 .241.003.241.003.481s-.015.181-.015.482c0 .137.036.299.036.481 0 .148-.014.31-.014.481 0 .153.007.315.007.481 0 .156-.011.317-.011.481 0 .159-.002.32-.002.482 0 .161.018.322.018.482 0 .162-.036.324-.036.484 0 .163.038.324.038.481 0 .167-.034.329-.034.483 0 .171.024.334.024.482 0 .182-.006.344-.006.481 0 .3-.039.365.017.432.12.143.17.068.357.068.186 0 .355.066.355-.015 0-.169.007-.244.007-.485 0-.24.018-.24.018-.481 0-.24-.008-.24-.008-.481s.015-.241.015-.481-.012-.24-.012-.481.008-.241.008-.482c0-.24.01-.24.01-.481z"></path><path d="m77.657 19.3112c0 .186.257.435.334.604.169 0 .339.026.496.068.161.043.307.118.447.201.145.083.297.155.413.273.118.116.209.258.292.401.082.142.155.294.198.456.043.156.052.322.052.492 0 .25-.002.25-.002.499 0 .251.019.251.019.501s-.036.25-.036.501c0 .25.038.25.038.5 0 0-.034.25-.034.501 0 .25.024.25.024.499 0 .251-.007.251-.007.501s-.017.25-.017.5c0 .251-.001.251-.001.502 0 .25-.001.25-.001.501s.032.251.032.502-.016.507-.016.507.191-.007.377-.007c.187 0 .251.037.33-.054.077-.09.045-.195.045-.445s.009-.25.009-.5.01-.25.01-.5c0-.251-.013-.193-.013-.501 0-.145-.026-.315-.026-.501 0-.156.015-.324.015-.5 0-.162-.011-.331-.011-.501 0-.166.025-.335.025-.501 0-.171-.024-.339-.024-.502 0-.176.024-.345.024-.502 0-.185.006-.355.006-.501 0-.306-.018-.249-.018-.499 0-.157.002-.312-.024-.461-.026-.153-.101-.292-.152-.435-.054-.146-.106-.288-.183-.42-.077-.134-.143-.277-.242-.394-.1-.118-.235-.2-.353-.299-.117-.098-.229-.204-.363-.281-.132-.077-.267-.157-.412-.21-.143-.052-.299-.074-.451-.1-.149-.027-.29-.053-.446-.036-.148.017-.354-.046-.354.141"></path><path d="m76.7636 25.9108c.26 0 .26.007.518.007.259 0 .259.017.519.017.258 0 .258.002.518.002h.518c.26 0 .324.152.511-.028.179-.172.015-.239.015-.487 0-.247-.009-.247-.009-.496 0-.248.016-.248.016-.495 0-.249-.012-.249-.012-.497 0-.249.008-.249.008-.497s.009-.248.009-.497-.011-.249-.011-.497c0-.249-.027-.249-.027-.498 0-.167-.012-.327-.06-.478-.052-.158-.135-.295-.231-.425-.096-.132-.193-.266-.325-.361-.131-.095-.287-.149-.443-.201-.152-.048-.308-.075-.476-.075-.169 0-.326.024-.478.073-.156.051-.31.109-.441.204-.131.096-.247.214-.343.346-.095.131-.184.274-.236.431-.05.151-.041.319-.041.486 0 .248-.014.248-.014.496s.008.248.008.495c0 .249-.012.201-.012.496 0 .147-.002.317-.002.497 0 .16.018.329.018.498s-.034.337-.034.498c0 .18.037.35.037.497 0 .296-.255.423-.023.512.242.093.265-.023.523-.023"></path><path d="m79.0955 3.2057c-.1 0-.18-.08-.18-.179v-.52c0-.098.08-.179.18-.179.098 0 .178.081.178.179v.52c0 .099-.08.179-.178.179"></path><path d="m77.1424 3.6373c-.44-.042-.785-.412-.785-.864 0-.447.336-.814.767-.864l-.037-.478c-.678.068-1.21.643-1.21 1.342 0 .72.567 1.308 1.278 1.345z"></path><path d="m77.3201 3.6363c.435-.047.774-.417.774-.863 0-.444-.33-.808-.757-.864l.014-.479c.044.003.086.01.126.018.625.118 1.097.665 1.097 1.325 0 .706-.545 1.287-1.237 1.342z"></path><path d="m77.2362 6.9c.133 0 .238-.106.238-.238v-6.424c0-.132-.105-.238-.238-.238-.131 0-.238.106-.238.238v6.424c0 .132.107.238.238.238"></path><path d="m79.4353 2.9996c.127 0 .228-.103.228-.227 0-.127-.101-.227-.228-.227h-4.419c-.126 0-.227.1-.227.227 0 .124.101.227.227.227z"></path><path d="m75.3582 3.2057c.098 0 .178-.08.178-.179v-.52c0-.098-.08-.179-.178-.179-.1 0-.179.081-.179.179v.52c0 .099.079.179.179.179"></path><path d="m76.7929.5572c0 .099.08.179.179.179h.52c.099 0 .179-.08.179-.179s-.08-.179-.179-.179h-.52c-.099 0-.179.08-.179.179"></path><path d="m78.2879 9.4674c0-.241 1.011.506 1.609 1.357.6.853 1.311 2.984 1.359 3.11.047.126-.443.079-.537.047-.095-.032-.442-1.53-.774-2.194-.678-1.357-1.231-1.799-1.372-1.924-.143-.127-.285-.333-.285-.396"></path><path d="m77.0779 9.7828c0 .176.007.176.007.352 0 .175.01.175.01.351s-.005.176-.005.352c0 .175.016.175.016.35 0 .176-.027.176-.027.352s.012.176.012.351c0 .176.01.176.01.351s-.014.175-.014.351c0 .175.012.175.012.351s-.02.176-.02.352c0 .175.033.559.033.735 0 0 .439.055.504 0 .065-.054.016-.643.009-.737-.011-.118-.008-.237-.008-.354 0-.118-.003-.235-.003-.351 0-.119.023-.238.023-.354 0-.119-.007-.237-.007-.352 0-.122-.001-.24-.001-.354 0-.121-.016-.239-.016-.354 0-.121.005-.24.005-.352 0-.124-.004-.242-.004-.353 0-.126.019-.245.019-.352 0-.134-.017-.479-.017-.578 0-.224-.553-.133-.553-.133"></path><path d="m83.5867 25.9c0 .24-.014.482-.014.482s-.107-.113-.331-.113h-.446c-.223 0-.223-.024-.445-.024-.223 0-.223.012-.446.012s-.223-.005-.447-.005-.367-.045-.435.023c-.066.069.002.638.002.638s.208.018.431.018.223-.026.446-.026c0 0 .223.013.446.013.222 0 .222-.001.445-.001.224 0 .224.006.447.006.224 0 .338.109.338.109s.003.248.003.491-.008.243-.008.486c0 .244.013.409-.069.451 0 0-.056-.08-.295-.08s-.239.018-.478.018c-.24 0-.24.004-.479.004-.238 0-.238-.006-.477-.006s-.239-.005-.478-.005c-.24 0-.24-.025-.48-.025-.239 0-.239-.006-.478-.006s-.239.033-.479.033c-.239 0-.239-.033-.478-.033s-.239.039-.48.039c-.238 0-.238-.014-.478-.014-.238 0-.238.016-.479.016-.239 0-.239-.034-.479-.034-.239 0-.239-.005-.479-.005s-.24.027-.479.027-.239.003-.48.003c-.239 0-.239-.008-.479-.008-.238 0-.238-.004-.479-.004-.239 0-.239.009-.478.009-.24 0-.24-.016-.48-.016s-.24.014-.48.014c-.239 0-.239-.013-.48-.013-.24 0-.24-.014-.48-.014s-.17.061-.398-.015c-.062-.021-.087-.207-.087-.45 0-.242.051-.247-.001-.484-.058-.258.042-.299.067-.427.021-.102.176-.045.413-.045.239 0 .239-.007.477-.007.239 0 .239-.016.477-.016s.238-.002.476-.002c.239 0 .239.007.477.007.239 0 .239-.013.478-.013s.42.056.523-.026c.104-.084-.053-.609-.053-.609s-.23-.014-.467-.014c-.238 0-.238-.013-.477-.013-.238 0-.238.029-.477.029-.237 0-.237-.007-.476-.007-.238 0-.238-.015-.476-.015-.24 0-.24.032-.478.032-.24 0-.145-.006-.376-.065-.082-.02-.085-.192-.085-.431 0-.24-.011-.24-.011-.479s.003-.178.003-.479c0-.136.002-.297.002-.479 0-.146-.018-.307-.018-.478 0-.152-.013-.312-.013-.479 0-.154.031-.314.031-.478 0-.157.006-.317.006-.479 0-.159-.009-.318-.009-.479s-.024-.321-.024-.481c0-.161.033-.321.033-.48 0-.162-.019-.324-.019-.48 0-.164.001-.325.001-.479 0-.167-.008-.328-.008-.481 0-.171-.009-.332-.009-.479 0-.182.039-.342.039-.479 0-.301-.042-.362.061-.424.205-.123.156-.057.396-.057.238 0 .238.002.478.002.239 0 .239-.009.478-.009s.239.009.478.009.239-.004.478-.004c.24 0 .24.006.479.006s.239.001.479.001c.237 0 .237.011.478.011.239 0 .239.006.478.006s.239-.02.48-.02c.239 0 .239.006.478.006.24 0 .24.015.48.015.238 0 .238-.04.478-.04.239 0 .239.017.48.017.239 0 .239.005.478.005s.239-.013.48-.013c.239 0 .239.025.479.025s.24.001.479.001.239-.033.478-.033c.241 0 .241-.001.481-.001.239 0 .239.034.479.034s.24-.016.481-.016c.24 0 .24-.004.48-.004s.318.112.318.194c0 .239.037.164.037.403 0 .24-.009.24-.009.478 0 .24.01.24.01.48 0 .239-.01.239-.01.478s.039.239.039.479c0 .239-.019.239-.019.479 0 .239-.014.239-.014.479 0 .239.011.239.011.479 0 .239.01.239.01.479 0 .239.004.239.004.478s-.004.239-.004.479c0 .239.006.239.006.479 0 .239.002.239.002.48 0 .239-.018.239-.018.479 0 .239.025.239.025.48 0 .24-.008.24-.008.48m-8.339-9.489c.035-.051.236.005.472.005.235 0 .235-.005.471-.005s.183.02.472.02c.136 0 .296.002.472.002.146 0 .306-.027.471-.027.152 0 .31.025.47.025.157 0 .316-.003.473-.003.161 0 .319-.016.473-.016.165 0 .324.015.471.015.176 0 .335-.009.472-.009.289 0 .416.02.518-.077.099-.095.083-.557-.048-.626 0 0-.236-.006-.472-.006h-.473c-.236 0-.236.016-.472.016-.237 0-.237.01-.473.01s-.236-.032-.472-.032-.236.009-.472.009c-.238 0-.238.003-.474.003s-.236-.007-.472-.007h-.474c-.237 0-.237.006-.474.006s-.237.015-.474.015c-.241 0-.241-.021-.482-.021-.24.001-.24.004-.481.006-.242.001-.242.003-.482.005-.241.001-.241.001-.482.001-.241.002-.485.009-.485.009s-.254-.506.003-.517c.11-.005.236-.007.472-.007s.236.01.474.01c.236 0 .236-.003.472-.003.238 0 .238-.022.475-.022.236 0 .236.025.474.025.236 0 .236.001.472.001.237 0 .237-.022.475-.022.237 0 .237.008.473.008.238 0 .178-.004.475-.004.136 0 .296.02.475.02.146 0 .305-.025.473-.025.152 0 .311.003.474.003.154 0 .312.02.473.02h.475c.158 0 .318-.004.476-.004.16 0 .318.014.474.014.163 0 .321-.009.475-.009.165 0 .324-.014.476-.014.17 0 .329-.004.475-.004.179 0 .339.005.474.005.296 0 .446-.018.446.064 0 .271.01.213.01.483s.028.27.028.541c0 .27-.009.27-.009.541 0 .27-.009.345-.009.457 0 .165-.243.087-.493.087-.249 0-.249-.01-.499-.01s-.25-.006-.501-.006c-.25 0-.25.007-.5.007s-.25.001-.501.001c-.249 0-.249.007-.5.007-.25 0-.25-.008-.5-.008s-.25.018-.5.018-.25-.033-.5-.033c-.251 0-.251.002-.5.002-.251 0-.251.031-.501.031s-.25-.01-.501-.01-.251.009-.501.009-.25-.029-.502-.029c-.155 0-.125.069-.406-.005-.232-.061-.116-.218-.122-.458s-.063-.387.003-.482m6.284-1.988c-.254 0-.254.019-.508.019-.253 0-.253-.041-.506-.041-.254 0-.254.022-.508.022s-.254-.006-.508-.006c-.255 0-.197-.007-.509-.007-.146 0-.318.01-.507.01-.159 0-.33.005-.507.005-.165 0-.335.007-.509.007-.168 0-.339-.012-.508-.012-.173 0-.345-.008-.509-.008-.178 0-.349-.001-.509-.001-.189 0-.365-.019-.507.014-.086.02-.17-.007-.249.005-.047-.06-.083-.095-.099-.198-.024-.169.022-.311.011-.465-.011-.148.04-.257.072-.659.016-.196.018-.428.043-.672.021-.214.058-.436.089-.665.017-.131.1-.547.315-.911.114-.191.364-.558.463-.641.064-.054.294-.271.505-.401s.406-.13.504-.13.405-.083.356-.196c-.048-.114-.614-.115-.762-.096-.284.036-.412.065-.559.13-.146.064-.29.113-.403.182-.106.064-.289.173-.75.68-.04.033-.08.071-.121.11-.125.125-.244.288-.377.454-.117.145-.254.284-.369.465-.103.165-.184.366-.281.561-.088.181-.183.366-.26.575-.072.194-.116.412-.173.63-.055.204-.121.41-.161.636-.031.172-.052.355-.073.54-.018.007-.039.013-.055.021-.233.109-.262.113-.407.051.014-.22.038-.446.071-.659.032-.216.052-.436.101-.644.05-.21.138-.401.203-.601.067-.202.123-.409.204-.599.081-.191.159-.388.255-.566.096-.179.21-.341.321-.505.109-.163.224-.324.345-.472.123-.147.245-.298.378-.428s.282-.231.426-.342c.143-.111.287-.22.438-.311.15-.09.305-.168.464-.236.156-.068.319-.112.482-.158.159-.046.323-.093.487-.116s.329-.039.498-.039c.166 0 .331.041.493.062.166.023.333.035.493.081.164.046.318.129.473.197.158.07.317.134.466.224.151.091.298.192.439.303.144.111.29.218.423.348.132.13.241.3.363.449.122.147.239.298.348.463.11.163.217.366.314.543.094.178.173.332.256.523.08.189.182.366.248.567.065.2.095.418.145.629.05.207.096.415.127.632.032.213.066.416.079.636-.041.018-.074.029-.104.037l-.173.003c-.057-.013-.119-.029-.227-.029m-4.944-7.273c.187-.039.186-.064.375-.077.204-.014.204.021.408.035.191.013.252-.107.372.041.13.16-.009.202-.009.408 0 .207.015.207.015.414 0 .141.034.194.036.274l-.847.03c-.019-.133.01-.172.02-.366.012-.237.052-.188-.02-.414-.075-.23-.162-.176-.356-.317-.012-.007-.007-.025.006-.028m9.381 34.601c-.025-.07-.201-.122-.464-.066-.217.047-.32.046-.395.052l.009-.234c0-.243.011-.243.011-.485s-.002-.242-.002-.484.002-.242.002-.485c0-.242-.013-.242-.013-.485s.002-.243.002-.486c0-.242-.011-.242-.011-.486 0-.242.014-.242.014-.484 0-.243-.01-.243-.01-.485 0-.243-.013-.243-.013-.486s-.004-.243-.004-.486c0-.242.034-.242.034-.485 0-.244-.021-.244-.021-.487 0-.242-.013-.242-.013-.485 0-.244.011-.244.011-.486 0-.243.027-.243.027-.486 0-.244-.03-.244-.03-.487s.001-.243.001-.486.015-.243.015-.487c0-.243.007-.243.007-.486s-.005-.243-.005-.486.014-.243.014-.486-.038-.243-.038-.486.034-.243.034-.487-.003-.244-.003-.487c0-.201-.022-.238-.03-.38.01-.024.02-.047.035-.082.078-.178.064-.184.142-.363.079-.178.08-.128.157-.305.078-.179.127-.293.107-.349-.019-.056-.164-.099-.38-.053-.225.049-.301.034-.369.048v.003c-.115.008-.221.015-.286-.039-.183-.152-.089-.182-.089-.421s.01-.239.01-.478.003-.173.003-.477c0-.135.028-.295.028-.479 0-.145-.031-.305-.031-.477 0-.151-.009-.311-.009-.479 0-.153.028-.312.028-.476 0-.155.001-.316.001-.479 0-.156.006-.316.006-.478 0-.157-.012-.318-.012-.479 0-.158-.017-.317-.017-.478 0-.159.01-.319.01-.478 0-.161.004-.321.004-.48 0-.16-.005-.321-.005-.48 0-.161.015-.321.015-.479 0-.162-.027-.323-.027-.48 0-.163.012-.323.012-.48 0-.164.006-.324.006-.48 0-.166-.012-.325-.012-.479 0-.167.019-.328.019-.48 0-.107-.006-.209-.012-.306.01-.026.021-.051.038-.088.077-.178.064-.185.142-.364.078-.177.079-.126.156-.305.078-.178.128-.291.108-.348-.02-.056-.164-.099-.38-.054-.081.018-.138.026-.187.032-.087-.001-.207-.002-.328-.002-.227 0-.207.052-.384.02-.059-.01-.066-.211-.061-.496.003-.141.028-.305.03-.479.001-.156-.01-.318-.009-.481s-.009-.326-.01-.48c-.002-.175-.023-.339-.028-.48-.01-.263-.038-.467-.038-.467s-.023-.007-.058-.017l.075-.001s-.226-.074-.407-.074c-.213.002-.414-.054-.414-.054v-.045c-.011-.21-.02-.314-.046-.518-.026-.207-.061-.412-.102-.613-.04-.202-.095-.399-.149-.595-.054-.197-.127-.383-.194-.571-.068-.189-.148-.369-.228-.549-.079-.18-.159-.36-.251-.53-.093-.17-.18-.345-.283-.503-.104-.159-.217-.306-.33-.451-.113-.147-.171-.236-.294-.368s-.316-.298-.447-.415-.258-.244-.399-.346c-.138-.101-.291-.164-.436-.249-.145-.084-.293-.154-.444-.222-.196-.087-.479-.135-.72-.164.003-.029.005-.064.005-.109 0-.19.006-.19.006-.379s.007-.189.007-.378c0-.19.007-.19.007-.38 0-.189.043-.205-.041-.375-.047-.093-.242-.065-.386-.105-.386-.105-1.559-.034-1.559-.034-.017.067-.241.029-.332.139-.127.153-.086.194-.086.392s-.031.198-.031.396.035.178.035.397c0 .128-.005.269-.005.397 0 .055.006.097.012.131-.244.048-.539.187-.68.267-.149.083-.296.162-.437.261-.141.102-.279.209-.412.327-.135.117-.26.246-.385.377-.125.132-.213.333-.328.48-.115.146-.27.22-.376.38-.104.159-.191.338-.285.509-.093.17-.198.332-.28.513-.081.182-.157.368-.226.56-.069.189-.109.395-.164.595-.055.196-.12.39-.161.594-.041.203-.076.41-.103.619-.027.206-.034.421-.046.633v.019c-.032.06-.055.05-.123.061-.213.038-.214.029-.43.037-.216.007-.328.027-.328.027s.003.234.003.471c0 .236-.003.236-.003.473 0 .236-.017.236-.017.472s.026.236.026.473.004.237.004.473c0 .237-.023.465-.023.465s-.06.011-.145.022c-.22 0-.638.007-.81-.029-.217-.046-.361-.004-.381.053s.03.17.108.349c.078.177.08.127.157.305.078.178.065.185.142.364.077.177.075.178.164.348l.016-.028c.001.039.001.075.001.116 0 .146-.023.305-.024.476 0 .149.015.309.015.475-.001.152-.003.312-.003.476 0 .154.003.312.003.475-.001.156.009.314.009.476 0 .156-.022.315-.022.476-.001.157.017.316.017.476-.001.157-.003.316-.004.476 0 .159-.002.318-.002.477-.001.159.011.318.011.477 0 .16-.019.319-.02.476 0 .161-.016.321-.016.478-.001.161.04.32.04.477-.002.164-.003.323-.004.479 0 .163-.034.322-.034.477-.001.165.005.324.005.477-.001.167-.014.326-.014.477-.001.171.032.331.031.476 0 .181-.024.341-.025.476-.001.302.001.457.001.457s-.181.019-.371.031c-.219 0-.483-.003-.61-.03-.216-.046-.36-.003-.381.053-.018.057.031.17.109.348.078.179.078.128.155.307.078.177.066.184.144.362.078.179.075.179.164.35l.007-.012c-.001.034-.001.074-.001.125.001.245.014.245.014.489 0 .246-.004.246-.004.491.001.245-.005.245-.005.49 0 .246.002.246.003.49.001.245.011.245.011.49s.008.245.009.49c0 .246.014.246.014.491s-.028.245-.027.49c0 .244.018.244.019.489 0 .246-.013.246-.013.491s-.011.245-.01.491c0 .246.022.246.022.491.001.246-.008.246-.007.491 0 .246.096.263.014.493l.002.909c.053.257-.014.264-.012.525 0 .263-.006.263-.006.524 0 .263.075.27.011.524l-.009.903c.032.221.014.221.014.444 0 .225-.014.225-.014.449.001.224.014.224.014.449 0 .223-.001.54-.001.825 0 0 .012.603.071.857.028.119.017.508 0 .572l.035.571-.035.535c.004.051 0 .506 0 .607 0 .229-.071.449-.071.678.001.229.142.429.142.429s1.095.07 1.144 0c.047-.071.464.129.464-.107 0-.237-.036-.192-.036-.429s-.037.022-.037-.214c0-.237.037-.049.037-.321v-.714c0-.165.036-.82.036-.964 0-.273.139-1.866.072-1.946-.058-.071-.007-.159-.007-.386 0-.229.015-.229.015-.456 0-.229.012-.229.012-.457s-.016-.228-.016-.455c0-.229.022-.229.022-.458 0-.228-.018-.228-.018-.457s-.049-.303.059-.398c.073-.063.171-.054.404-.054.232 0 .232-.002.464-.002.233 0 .233.016.465.016.233 0 .192-.008.465-.008.14 0 .299-.016.467-.016.152 0 .312.006.466.006.166 0 .327-.005.466-.005.273 0 .453-.001.453-.001s.083-.254.043-.44c-.051-.226-.263-.15-.496-.15-.232 0-.184.017-.464.017-.136 0-.294.002-.464.002-.147 0-.306.01-.465.01-.156 0-.312-.029-.468-.029-.16 0-.318.026-.467.026-.17 0-.329-.021-.465-.021-.281 0-.398.031-.444-.09-.085-.223-.002-.144-.002-.382 0-.239-.036-.239-.036-.478s.023-.239.023-.477.002-.238.002-.477-.027-.239-.027-.478c0-.238.024-.238.024-.477s.008-.179.008-.477c0-.137.007-.299.007-.479 0-.147-.035-.307-.035-.477 0-.153.001-.313.001-.478 0-.155.033-.315.033-.477 0-.158.001-.318.001-.478s-.023-.32-.023-.479c0-.162-.008-.321-.008-.479 0-.163.021-.323.021-.478 0-.166-.011-.327-.011-.48 0-.169.02-.33.02-.477 0-.181-.034-.342-.034-.479 0-.298-.202-.377.021-.462.221-.084.231.003.468.003.238 0 .238-.01.475-.01s.237-.02.475-.02.238.016.475.016c.239 0 .239.012.476.012.239 0 .239-.006.476-.006.238 0 .238-.018.475-.018.238 0 .238.029.476.029s.238-.032.475-.032c.238 0 .238.005.477.005.238 0 .238.017.475.017.239 0 .239-.031.477-.031.237 0 .237.039.475.039.239 0 .178-.009.477-.009.135 0 .296-.005.476-.005.147 0 .306-.025.476-.025.152 0 .311.038.476.038h.476c.157 0 .316-.037.477-.037.158 0 .317.014.477.014h.478c.161 0 .321.018.478.018.163 0 .322-.014.477-.014.166 0 .325-.007.478-.007.17 0 .33-.004.477-.004.18 0 .341-.009.477-.009.298 0 .339-.041.32.024-.068.228-.004.236-.004.474 0 .239-.009.239-.009.478 0 .238.036.238.036.476s-.012.238-.012.478c0 .239-.001.239-.001.477 0 .239.015.239.015.477 0 .239-.036.18-.036.478 0 .137.005.298.005.479 0 .147.027.306.027.476 0 .154-.035.313-.035.479 0 .154.006.314.006.478 0 .156.015.316.015.477 0 .159-.001.319-.001.479 0 .161-.013.321-.013.479 0 .162.035.322.035.478 0 .166-.026.326-.026.479 0 .17.013.331.013.479 0 .18-.009.341-.009.477 0 .298.005.491.005.491s-.092-.001-.328-.001c-.237 0-.237-.02-.474-.02-.236 0-.236.003-.474.003-.237 0-.237-.015-.472-.015-.239 0-.239.036-.475.036-.238 0-.238-.014-.476-.014-.237 0-.467.005-.467.005s-.095.507-.01.58c.085.071.239.001.476.001.236 0 .236-.017.472-.017.238 0 .238.035.475.035.236 0 .236-.038.472-.038.238 0 .238.034.475.034s.237-.024.476-.024c.237 0 .245-.007.29.053.046.06.017.181.017.409 0 .227-.002.227-.002.456v.456c0 .228.033.228.033.456s-.019.228-.019.457c0 .228.009.228.009.457 0 .228-.012.429-.021.513l.041.434s.078 1.164.081 1.283c.002.085.033 1.766.033 2.011s-.003 1.493-.003 1.738c0 .246-.006 3.676-.006 3.922 0 .245-.004 4.954-.004 5.2s.028 2.989.046 3.07c.016.082.475-.014.663-.014.186 0 .356.088.39.012.035-.078-.027-2.796-.027-3.041s.022-4.953.022-5.198c0-.246-.022-3.676-.022-3.921 0-.246.018-1.493.018-1.74 0-.246-.043-1.806-.022-2.051 0-.008.008-.291.011-.639.014-.031.03-.067.051-.115.095-.218.079-.227.174-.445.095-.217.096-.155.191-.374.096-.217.156-.355.132-.424"></path><path d="m70.2976 41.734s-.181.021-.371.031c-.219.001-.482-.002-.609-.03-.217-.045-.361-.003-.381.054-.019.056.03.17.108.347.078.179.078.128.155.307.079.178.066.185.144.363s.619.889.708 1.06"></path><path d="m89.0613 67.9987c.295-.001.728.046.725-.377-.001-.324-.267-.362-.522-.36l-.596.003.003.736zm.984 1.157-.304.001-.601-.956-.468.002.006.96-.256.002-.011-2.082.911-.005c.551-.003.738.202.7400105.546.0019895.41-.2820105.564-.6510105.575zm.6310182-1.046c-.0060182-.906-.6690182-1.61-1.5750182-1.6050265-.91.0040265-1.57.7160265-1.5650282 1.6220265.0040282.914.6720282 1.619 1.5830282 1.6150169.906-.0050169 1.561-.7180169 1.5570182-1.6320169zm-3.4350406.019c-.0049776-1.025.8260224-1.865 1.8600224-1.8710322 1.028-.0059678 1.865.8270322 1.8700226 1.8500322.0049774 1.035-.8220226 1.875-1.8500226 1.8810224-1.035.0049776-1.874-.8270224-1.8800224-1.8600224z"></path></g></svg> 