<svg id="Layer_1" data-name="Layer 1" xmlns="http://www.w3.org/2000/svg" xmlns:xlink="http://www.w3.org/1999/xlink" viewBox="0 0 226.9 226.9"><defs><linearGradient id="linear-gradient" x2="226.9" y2="226.9" gradientUnits="userSpaceOnUse"><stop offset="0.19" stop-color="#ff9c00"/><stop offset="0.29" stop-color="#fe9708"/><stop offset="0.45" stop-color="#f9891d"/><stop offset="0.63" stop-color="#f37240"/><stop offset="0.77" stop-color="#ed5e5e"/></linearGradient></defs><title>Vector Smart Object3</title><rect width="226.9" height="226.9" fill="url(#linear-gradient)"/><path d="M664,554.51H675.8L659.1,594H648.68l-16.58-39.49h12.42l9.63,28Z" transform="translate(-573.21 -396.59)" fill="#fff"/><path d="M688.66,541.43v8.37H678.19C677,538.56,688.66,541.43,688.66,541.43Zm-10.47,13.08h10.47V594H678.19Z" transform="translate(-573.21 -396.59)" fill="#fff"/><path d="M694.56,554.87V540.92h10.22v13.49h6.41v9.68h-6.41v19q0,2.43.62,3t3.77.6l1,0,1-.05v7.72l-4.89.18q-7.32.25-10-2.54-1.74-1.78-1.74-5.47V554.87Z" transform="translate(-573.21 -396.59)" fill="#fff"/><path d="M738.71,594v-4.64a21.32,21.32,0,0,1-5,4,15,15,0,0,1-7.58,1.92,13.07,13.07,0,0,1-8.91-3.06q-3.52-3.06-3.52-8.68,0-7.28,5.66-10.54a25.27,25.27,0,0,1,9.13-2.54l3.54-.43a16.52,16.52,0,0,0,4.12-.91,3.11,3.11,0,0,0,2.23-2.94,3.47,3.47,0,0,0-1.71-3.35,10.79,10.79,0,0,0-5-.93q-3.71,0-5.25,1.81A7.45,7.45,0,0,0,725,567.3H715a15.1,15.1,0,0,1,2.91-8.52q4.11-5.21,14.12-5.22a25.19,25.19,0,0,1,11.57,2.57q5.06,2.57,5.06,9.71V594Zm-.33-19.2a11.32,11.32,0,0,1-2,1,16.91,16.91,0,0,1-2.77.71l-2.35.43a15.44,15.44,0,0,0-4.75,1.42,4.71,4.71,0,0,0-2.44,4.38,4.58,4.58,0,0,0,1.49,3.82,5.65,5.65,0,0,0,3.62,1.17,10.8,10.8,0,0,0,6.24-2q2.85-2,3-7.14Z" transform="translate(-573.21 -396.59)" fill="#fff"/><path d="M763.45,594H753.13V540.92h10.32Z" transform="translate(-573.21 -396.59)" fill="#fff"/><path d="M664,554.51H675.8L659.1,594H648.68l-16.58-39.49h12.42l9.63,28Z" transform="translate(-573.21 -396.59)" fill="#fff"/><path d="M688.66,541.43v8.37H678.19C677,538.56,688.66,541.43,688.66,541.43Zm-10.47,13.08h10.47V594H678.19Z" transform="translate(-573.21 -396.59)" fill="#fff"/><path d="M694.56,554.87V540.92h10.22v13.49h6.41v9.68h-6.41v19q0,2.43.62,3t3.77.6l1,0,1-.05v7.72l-4.89.18q-7.32.25-10-2.54-1.74-1.78-1.74-5.47V554.87Z" transform="translate(-573.21 -396.59)" fill="#fff"/><path d="M738.71,594v-4.64a21.32,21.32,0,0,1-5,4,15,15,0,0,1-7.58,1.92,13.07,13.07,0,0,1-8.91-3.06q-3.52-3.06-3.52-8.68,0-7.28,5.66-10.54a25.27,25.27,0,0,1,9.13-2.54l3.54-.43a16.52,16.52,0,0,0,4.12-.91,3.11,3.11,0,0,0,2.23-2.94,3.47,3.47,0,0,0-1.71-3.35,10.79,10.79,0,0,0-5-.93q-3.71,0-5.25,1.81A7.45,7.45,0,0,0,725,567.3H715a15.1,15.1,0,0,1,2.91-8.52q4.11-5.21,14.12-5.22a25.19,25.19,0,0,1,11.57,2.57q5.06,2.57,5.06,9.71V594Zm-.33-19.2a11.32,11.32,0,0,1-2,1,16.91,16.91,0,0,1-2.77.71l-2.35.43a15.44,15.44,0,0,0-4.75,1.42,4.71,4.71,0,0,0-2.44,4.38,4.58,4.58,0,0,0,1.49,3.82,5.65,5.65,0,0,0,3.62,1.17,10.8,10.8,0,0,0,6.24-2q2.85-2,3-7.14Z" transform="translate(-573.21 -396.59)" fill="#fff"/><path d="M763.45,594H753.13V540.92h10.32Z" transform="translate(-573.21 -396.59)" fill="#fff"/><rect x="194.91" y="187.85" width="9.56" height="9.56" fill="#fff"/></svg>